<?xml version="1.0" standalone="no"?>
<!DOCTYPE svg PUBLIC "-//W3C//DTD SVG 20010904//EN"
 "http://www.w3.org/TR/2001/REC-SVG-20010904/DTD/svg10.dtd">
<svg version="1.0" xmlns="http://www.w3.org/2000/svg"
 width="608.000000pt" height="608.000000pt" viewBox="0 0 608.000000 608.000000"
 preserveAspectRatio="xMidYMid meet">
<metadata>
Created by potrace 1.11, written by Peter Selinger 2001-2013
</metadata>
<g transform="translate(0.000000,608.000000) scale(0.100000,-0.100000)"
fill="#000000" stroke="none">
<path d="M3649 5606 c-2 -2 -31 -6 -64 -10 -78 -7 -192 -27 -235 -41 -10 -3
-27 -8 -38 -10 -45 -8 -201 -66 -270 -100 -40 -19 -74 -35 -76 -35 -10 0 -175
-106 -216 -138 -44 -35 -161 -150 -190 -188 -8 -10 -30 -39 -49 -64 -62 -80
-263 -275 -356 -344 -49 -37 -98 -74 -108 -81 -9 -8 -21 -15 -25 -15 -4 0 -14
-10 -22 -22 -12 -20 -14 -122 -15 -673 -1 -357 2 -658 7 -667 5 -10 52 -50
106 -89 119 -88 216 -172 302 -263 36 -38 72 -77 81 -86 9 -10 36 -44 60 -76
122 -166 329 -319 549 -409 36 -14 74 -30 85 -35 22 -10 185 -56 225 -64 192
-36 227 -40 390 -40 157 0 209 5 340 30 47 9 96 18 109 20 66 13 305 99 398
145 302 147 567 399 698 664 17 33 33 62 36 65 21 18 118 299 138 400 10 54
13 67 28 165 9 61 10 388 0 465 -9 75 -18 134 -23 141 -2 3 -6 21 -9 40 -14
82 -53 205 -102 318 -32 75 -50 111 -97 195 -14 26 -100 148 -123 176 -110
134 -231 243 -364 330 -139 91 -419 211 -564 242 -108 23 -188 38 -231 44 -50
7 -369 16 -375 10z m316 -291 c39 -4 75 -8 80 -10 6 -1 28 -5 50 -9 68 -14
214 -56 283 -82 64 -25 232 -104 242 -114 3 -3 32 -23 64 -44 33 -21 66 -44
74 -50 25 -19 186 -180 207 -206 69 -86 185 -292 185 -327 0 -7 4 -13 10 -13
5 0 9 -3 8 -7 -1 -5 7 -37 19 -73 85 -256 101 -543 47 -820 -17 -87 -75 -273
-86 -278 -4 -2 -8 -11 -8 -19 0 -15 -49 -114 -80 -163 -175 -272 -378 -435
-685 -552 -71 -27 -208 -70 -235 -73 -8 -1 -42 -7 -75 -14 -305 -57 -663 -8
-935 129 -168 84 -283 178 -385 315 -89 118 -306 329 -427 415 l-48 33 -1 276
c-1 628 1 773 14 785 6 6 41 34 77 61 36 27 75 59 86 70 12 11 50 47 85 81 88
84 159 162 244 269 90 115 193 195 351 274 94 47 252 105 318 117 17 3 49 9
71 14 22 5 72 12 110 15 39 4 71 8 72 9 5 5 208 -2 268 -9z"/>
<path d="M3764 5172 c-2 -94 -24 -375 -30 -381 -2 -2 -26 -6 -52 -7 -117 -6
-267 -49 -393 -115 -72 -38 -84 -41 -103 -29 -18 12 -153 117 -166 130 -3 3
-14 12 -24 20 -19 15 -19 14 -3 -15 10 -16 44 -68 76 -114 l59 -83 -91 -92
c-94 -94 -174 -212 -204 -298 -8 -24 -18 -46 -21 -50 -4 -4 -54 -14 -112 -23
-58 -9 -116 -17 -130 -20 -48 -7 -125 -17 -147 -19 -29 -2 -42 -16 -17 -17 36
-3 60 -6 100 -14 21 -4 50 -9 64 -11 25 -2 64 -9 130 -21 19 -4 42 -7 50 -7
12 -1 14 -12 11 -56 -14 -166 -2 -430 20 -472 5 -10 8 -18 5 -18 -5 0 18 -89
31 -120 4 -8 7 -17 7 -20 1 -3 16 -36 34 -73 35 -71 78 -112 126 -121 82 -15
345 91 442 179 6 6 29 23 50 40 109 83 257 255 352 406 43 68 87 158 80 164
-2 3 -31 -30 -63 -72 -60 -77 -194 -216 -273 -285 -148 -129 -347 -225 -504
-244 l-36 -5 -30 78 c-17 43 -33 92 -36 108 -2 17 -10 57 -15 90 -42 236 50
514 227 692 140 140 344 233 567 259 216 24 320 1 490 -111 188 -124 334 -336
381 -550 11 -52 13 -238 3 -290 -5 -27 -11 -59 -13 -70 -9 -44 -19 -80 -26
-90 -4 -5 -12 -24 -18 -42 -25 -74 -97 -177 -182 -261 -94 -92 -127 -122 -135
-122 -3 0 -19 -9 -35 -20 -76 -51 -83 -55 -255 -132 -12 -5 -28 -10 -38 -12
-9 -1 -20 -5 -23 -9 -4 -4 -16 -7 -26 -7 -10 0 -18 -4 -18 -10 0 -5 6 -8 13
-5 6 2 41 6 77 10 89 8 114 12 139 20 11 3 33 9 48 11 97 18 282 101 368 167
39 30 125 115 155 154 92 117 154 277 178 451 11 77 6 242 -8 322 -6 34 -10
63 -8 65 2 2 21 6 43 9 22 3 51 8 65 11 14 3 45 7 70 10 25 2 56 6 70 9 13 3
39 7 58 8 38 3 55 18 20 19 -13 0 -35 2 -50 4 -42 6 -116 13 -198 21 -104 9
-103 9 -112 25 -4 8 -22 46 -40 84 -59 127 -156 249 -264 331 -20 16 -33 33
-30 41 3 7 42 70 87 140 66 105 78 132 39 93 -3 -3 -36 -32 -75 -65 -38 -33
-83 -72 -99 -87 -17 -15 -35 -28 -42 -28 -7 0 -49 18 -93 40 -44 22 -84 40
-89 40 -5 0 -27 8 -48 17 -22 9 -41 17 -44 18 -14 3 -87 19 -100 22 -8 1 -40
6 -72 9 -31 4 -61 9 -66 13 -6 3 -13 26 -16 51 -4 25 -9 56 -11 70 -3 14 -8
43 -10 65 -3 22 -10 67 -15 100 -5 33 -10 72 -12 87 -5 37 -14 43 -14 10z"/>
<path d="M3985 4298 c-106 -24 -99 -22 -186 -56 -344 -137 -562 -414 -585
-745 -3 -40 -7 -78 -9 -85 -3 -7 0 -10 5 -7 6 3 10 11 10 17 0 6 20 52 44 102
82 172 206 319 359 424 42 29 79 53 82 53 2 0 30 11 61 25 66 29 181 57 201
50 18 -7 16 -168 -3 -259 -27 -130 -89 -267 -167 -372 -51 -68 -185 -192 -265
-246 -89 -59 -94 -64 -67 -56 11 3 40 8 65 11 49 6 175 49 196 67 8 6 14 9 14
5 0 -10 140 87 175 121 120 116 197 260 244 453 19 78 22 112 28 260 4 117 2
152 -11 181 -30 70 -75 84 -191 57z"/>
<path d="M3640 3039 c-45 -10 -105 -54 -195 -145 -106 -106 -110 -112 -110
-156 0 -42 13 -56 85 -90 245 -116 469 -105 650 30 47 36 101 85 97 89 -2 1
-26 -8 -53 -21 -99 -48 -193 -69 -304 -70 -94 0 -151 10 -215 37 -90 39 -91
41 -71 71 36 56 123 128 200 167 43 21 86 39 95 39 9 0 34 6 55 14 27 9 78 13
160 11 105 -2 118 -1 101 11 -10 8 -28 14 -39 14 -238 4 -431 4 -456 -1z"/>
<path d="M978 4610 c-36 -10 -73 -48 -85 -85 -7 -23 -10 -1101 -4 -1257 2 -59
81 -116 151 -109 48 4 57 7 83 24 59 38 57 18 55 714 -3 620 -4 639 -23 665
-11 15 -31 32 -45 38 -31 15 -96 20 -132 10z"/>
<path d="M1319 4602 c-18 -9 -42 -30 -53 -45 -21 -28 -21 -38 -22 -663 -1
-711 -4 -679 71 -718 75 -39 170 -14 204 54 17 32 18 83 17 665 -1 585 -2 633
-19 658 -9 15 -29 34 -42 43 -36 23 -116 26 -156 6z"/>
<path d="M1674 4600 c-63 -32 -76 -66 -73 -195 1 -38 1 -76 0 -82 -2 -23 -2
-45 -2 -273 -1 -275 0 -296 1 -388 1 -41 0 -76 -3 -79 -3 -2 -1 -18 3 -34 5
-17 5 -31 -1 -35 -5 -3 -7 -9 -4 -14 3 -4 5 -36 5 -71 -1 -78 1 -128 5 -154 1
-11 3 -25 4 -31 0 -6 11 -23 24 -37 66 -76 207 -59 250 31 10 21 13 159 12
652 -1 684 1 664 -60 704 -39 26 -115 29 -161 6z"/>
<path d="M593 4240 c-60 -36 -63 -52 -64 -333 -1 -283 1 -297 64 -336 41 -25
115 -28 157 -6 16 8 38 29 50 46 22 29 22 39 23 287 0 223 -2 261 -17 290 -24
46 -70 72 -131 72 -32 0 -62 -7 -82 -20z"/>
<path d="M3893 1740 c-53 -21 -67 -138 -23 -185 74 -79 163 46 109 151 -9 17
-51 47 -62 43 -1 0 -12 -4 -24 -9z"/>
<path d="M38 1722 l-38 -3 0 -499 0 -498 50 -4 c90 -6 85 -17 85 208 l0 199
110 2 c61 1 122 2 136 2 26 1 26 2 25 74 l-1 73 -128 0 c-76 -1 -132 3 -135 9
-4 6 -7 72 -7 148 -1 116 2 137 15 138 8 0 80 2 160 2 l144 2 1 69 c1 44 -3
70 -11 73 -14 5 -352 9 -406 5z"/>
<path d="M2208 1719 c-10 -6 -16 -985 -6 -995 7 -7 438 -7 445 0 7 7 12 116 5
134 -3 9 -45 12 -161 12 l-157 0 0 140 1 140 60 1 c33 0 89 1 125 2 l64 2 2
68 c1 44 -2 67 -10 68 -6 1 -58 3 -116 4 -58 1 -110 3 -115 4 -7 1 -11 50 -11
136 0 114 3 135 16 136 8 0 80 2 159 2 l145 2 1 73 1 72 -33 1 c-216 4 -407 3
-415 -2z"/>
<path d="M763 1442 c-27 -4 -77 -52 -98 -93 -20 -38 -29 -31 -32 23 -3 49 -14
58 -69 58 l-40 0 2 -352 c1 -194 2 -355 3 -358 0 -3 27 -4 59 -2 l59 4 0 221
c-1 195 2 227 18 260 24 52 57 72 117 70 26 -1 48 0 48 0 5 19 13 90 14 116 1
29 -3 36 -29 46 -16 6 -40 9 -52 7z"/>
<path d="M1645 1442 c-3 -3 -11 -7 -18 -8 -59 -10 -114 -61 -153 -142 -32 -69
-37 -95 -37 -222 0 -83 4 -118 22 -170 54 -155 174 -222 314 -174 26 9 47 20
47 25 0 5 6 9 13 10 6 0 23 14 36 31 l25 31 -20 36 c-10 20 -26 37 -35 39 -9
2 -37 -10 -63 -26 -96 -61 -188 -16 -211 103 -5 22 -10 48 -12 58 -1 9 0 17 5
18 4 0 78 1 165 2 186 2 181 -1 172 109 -8 117 -57 218 -120 252 -33 18 -121
36 -130 28z m106 -162 c14 -17 26 -36 27 -43 0 -6 3 -23 6 -36 9 -40 -5 -46
-116 -45 -118 1 -121 4 -92 79 33 87 120 110 175 45z"/>
<path d="M3465 1437 c-98 -23 -158 -110 -158 -227 0 -63 11 -99 43 -146 27
-41 29 -48 17 -63 -46 -52 -56 -133 -22 -184 15 -24 15 -26 -3 -36 -66 -35
-78 -163 -21 -235 70 -89 248 -100 345 -20 96 78 120 240 48 315 -33 34 -79
49 -174 54 -81 4 -110 17 -110 49 0 32 22 48 56 41 49 -8 128 21 163 60 40 46
65 131 57 199 -5 47 -3 52 15 53 34 3 49 23 49 67 l0 41 -80 2 c-45 1 -87 6
-93 12 -23 18 -90 28 -132 18z m114 -149 c34 -54 18 -159 -27 -182 -35 -18
-80 -12 -105 13 -24 24 -34 109 -18 150 25 60 117 72 150 19z m-35 -532 c80
-5 109 -36 92 -96 -12 -43 -52 -63 -122 -64 -87 -1 -119 23 -118 88 0 54 25
85 64 80 14 -2 51 -5 84 -8z"/>
<path d="M5998 1442 c-30 -4 -83 -54 -110 -105 -14 -26 -17 -28 -19 -12 -8 98
-13 105 -68 105 l-47 0 0 -354 -1 -354 31 -4 c17 -2 45 -1 61 2 l30 5 1 221
c1 185 4 226 18 256 28 58 50 72 113 73 49 0 57 3 58 20 1 11 5 43 9 72 7 50
7 52 -21 65 -15 8 -40 12 -55 10z"/>
<path d="M1079 1430 c-69 -20 -134 -101 -163 -200 -16 -54 -22 -195 -11 -255
15 -80 55 -165 98 -206 91 -88 262 -72 339 32 19 25 19 26 -2 62 -25 42 -40
45 -78 18 -114 -79 -217 -25 -236 124 l-7 50 166 0 c123 0 168 3 174 13 8 14
7 97 -4 155 -28 160 -145 247 -276 207z m130 -133 c26 -22 56 -123 39 -133
-17 -11 -200 -10 -214 1 -10 8 -10 18 3 55 17 50 38 78 68 90 24 10 85 2 104
-13z"/>
<path d="M2983 1434 c-12 -3 -40 -23 -62 -45 -23 -21 -42 -36 -43 -31 0 4 -2
12 -3 17 -7 47 -16 55 -64 55 l-47 0 0 -352 1 -353 53 -5 c29 -3 56 -3 61 0 4
3 7 115 6 250 0 135 3 254 8 265 11 24 44 53 76 66 37 15 75 2 96 -34 18 -29
19 -55 21 -284 0 -139 3 -255 5 -257 5 -5 45 -9 87 -7 l33 1 -4 278 c-4 308
-8 333 -66 395 -32 34 -44 40 -87 42 -27 2 -59 1 -71 -1z"/>
<path d="M4330 1429 c-14 -6 -42 -26 -62 -47 -35 -33 -38 -34 -38 -14 0 33 -1
36 -12 50 -6 6 -30 12 -54 12 -41 0 -44 -2 -45 -27 -1 -34 -1 -628 0 -661 1
-22 4 -23 63 -20 l62 3 -1 255 -1 255 26 27 c29 32 83 52 112 43 24 -7 48 -42
56 -76 2 -13 5 -131 5 -262 1 -145 5 -239 11 -243 8 -5 65 -8 103 -5 12 1 12
493 1 551 -13 64 -77 167 -97 155 -4 -3 -10 -2 -13 3 -7 12 -87 13 -116 1z"/>
<path d="M4804 1415 c-53 -26 -106 -92 -125 -155 -20 -67 -21 -76 -24 -155 -3
-66 3 -128 19 -190 19 -74 82 -156 141 -184 82 -39 196 -18 259 46 42 43 44
54 15 94 -21 29 -52 38 -65 18 -13 -22 -95 -51 -128 -45 -63 12 -116 91 -116
174 l0 37 158 -1 c86 -1 162 3 169 8 17 13 9 161 -11 217 -51 141 -171 197
-292 136z m133 -104 c37 -3 95 -149 60 -152 -45 -4 -209 0 -214 5 -4 3 1 31
10 60 20 61 63 99 107 92 14 -3 30 -5 37 -5z"/>
<path d="M5367 1430 c-46 -14 -95 -58 -127 -113 -88 -154 -64 -432 48 -544 44
-45 91 -62 164 -59 73 2 138 33 175 84 l22 29 -21 34 c-11 19 -25 37 -31 41
-6 3 -31 -8 -56 -25 -63 -43 -128 -44 -171 -2 -44 42 -79 174 -47 176 6 0 80
1 164 2 l152 1 9 25 c14 43 -2 162 -32 233 -42 100 -146 149 -249 118z m98
-121 c33 -10 57 -43 73 -101 7 -26 7 -40 0 -44 -13 -8 -207 -11 -220 -3 -17
11 12 91 45 124 34 34 54 39 102 24z"/>
<path d="M3857 1423 c-2 -5 -3 -163 -3 -353 l1 -345 35 -5 c19 -3 47 -4 63 -1
l27 3 0 354 0 354 -59 0 c-33 0 -62 -3 -64 -7z"/>
</g>
</svg>
