<?xml version="1.0" encoding="utf-8"?>
<!-- Generator: Adobe Illustrator 16.0.0, SVG Export Plug-In . SVG Version: 6.00 Build 0)  -->
<!DOCTYPE svg PUBLIC "-//W3C//DTD SVG 1.1//EN" "http://www.w3.org/Graphics/SVG/1.1/DTD/svg11.dtd">
<svg version="1.1" id="Layer_1" xmlns="http://www.w3.org/2000/svg" xmlns:xlink="http://www.w3.org/1999/xlink" x="0px" y="0px"
	 width="15.082px" height="15.083px" viewBox="0 0 15.082 15.083" enable-background="new 0 0 15.082 15.083" xml:space="preserve">
<g>
	<path fill="none" stroke="#fff" stroke-miterlimit="10" d="M13.297,14.583H1.785c-0.71,0-1.285-0.575-1.285-1.285V1.786
		C0.5,1.076,1.075,0.5,1.785,0.5h11.512c0.71,0,1.285,0.576,1.285,1.286v11.512C14.582,14.008,14.007,14.583,13.297,14.583z"/>
	<path fill="#fff" d="M6.419,7.767H5.178V6.263h1.241V5.185c0-0.333,0.029-0.649,0.088-0.946
		c0.058-0.296,0.171-0.557,0.338-0.783s0.407-0.403,0.721-0.533C7.879,2.794,8.29,2.729,8.8,2.729c0.192,0,0.38,0.009,0.564,0.025
		C9.548,2.771,9.727,2.8,9.903,2.842L9.815,4.433C9.707,4.392,9.606,4.361,9.514,4.339c-0.091-0.02-0.196-0.031-0.313-0.031
		c-0.301,0-0.526,0.065-0.677,0.194c-0.15,0.13-0.225,0.396-0.225,0.797v0.964H9.69v1.504H8.299v4.587h-1.88V7.767z"/>
</g>
</svg>
