<?xml version="1.0" encoding="utf-8"?>
<!-- Generator: Adobe Illustrator 16.0.0, SVG Export Plug-In . SVG Version: 6.00 Build 0)  -->
<!DOCTYPE svg PUBLIC "-//W3C//DTD SVG 1.1//EN" "http://www.w3.org/Graphics/SVG/1.1/DTD/svg11.dtd">
<svg version="1.1" id="Layer_1" xmlns="http://www.w3.org/2000/svg" xmlns:xlink="http://www.w3.org/1999/xlink" x="0px" y="0px"
	 width="15.083px" height="15.083px" viewBox="0 0 15.083 15.083" enable-background="new 0 0 15.083 15.083" xml:space="preserve">
<g>
	<path fill="none" stroke="#fff" stroke-miterlimit="10" d="M13.455,14.583H1.628c-0.623,0-1.128-0.505-1.128-1.128V1.628
		C0.5,1.005,1.005,0.5,1.628,0.5h11.827c0.623,0,1.128,0.505,1.128,1.128v11.827C14.583,14.078,14.078,14.583,13.455,14.583z"/>
	<path fill="#fff" d="M3.143,3.767c0-0.287,0.102-0.531,0.305-0.734C3.649,2.83,3.893,2.729,4.18,2.729
		c0.286,0,0.53,0.101,0.733,0.304C5.115,3.236,5.217,3.48,5.217,3.767c0,0.286-0.102,0.53-0.304,0.732
		C4.71,4.702,4.466,4.803,4.18,4.803c-0.287,0-0.53-0.101-0.732-0.304C3.244,4.297,3.143,4.053,3.143,3.767 M3.285,5.59h1.788v5.794
		H3.285V5.59z"/>
	<path fill="#fff" d="M6.361,5.59h1.716v0.787h0.024C8.157,6.266,8.236,6.155,8.34,6.043c0.104-0.111,0.227-0.21,0.369-0.298
		C8.853,5.658,9.016,5.586,9.198,5.53c0.183-0.055,0.381-0.083,0.596-0.083c0.453,0,0.819,0.07,1.098,0.208
		c0.277,0.14,0.494,0.333,0.648,0.579c0.155,0.247,0.262,0.536,0.316,0.87C11.912,7.438,11.94,7.8,11.94,8.189v3.194h-1.788V8.547
		c0-0.167-0.006-0.34-0.018-0.519c-0.013-0.179-0.049-0.343-0.107-0.495c-0.06-0.15-0.151-0.274-0.275-0.369
		C9.629,7.068,9.452,7.02,9.223,7.02c-0.231,0-0.417,0.043-0.561,0.126C8.52,7.229,8.409,7.341,8.334,7.48
		C8.258,7.618,8.209,7.776,8.186,7.95C8.161,8.126,8.149,8.308,8.149,8.499v2.885H6.361V5.59z"/>
</g>
</svg>
