<?xml version="1.0" encoding="utf-8"?>
<!-- Generator: Adobe Illustrator 16.0.0, SVG Export Plug-In . SVG Version: 6.00 Build 0)  -->
<!DOCTYPE svg PUBLIC "-//W3C//DTD SVG 1.1//EN" "http://www.w3.org/Graphics/SVG/1.1/DTD/svg11.dtd">
<svg version="1.1" id="Layer_1" xmlns="http://www.w3.org/2000/svg" xmlns:xlink="http://www.w3.org/1999/xlink" x="0px" y="0px"
	 width="20.644px" height="23.488px" viewBox="0 0 20.644 23.488" enable-background="new 0 0 20.644 23.488" xml:space="preserve">
<g>
	<defs>
		<rect id="SVGID_1_" y="0" width="20.644" height="23.488"/>
	</defs>
	<clipPath id="SVGID_2_">
		<use xlink:href="#SVGID_1_"  overflow="visible"/>
	</clipPath>
	<path clip-path="url(#SVGID_2_)" fill="#6D6E70" d="M7.729,11.627c1.423,0.913,3.169,1.008,4.791,0.262
		c0.346-0.159,0.496-0.568,0.339-0.913c-0.159-0.345-0.568-0.496-0.913-0.337c-1.188,0.545-2.452,0.483-3.473-0.17
		c-0.996-0.639-1.591-1.723-1.591-2.9c0-1.897,1.544-3.441,3.441-3.441c1.896,0,3.44,1.544,3.44,3.441
		c0,0.379-0.309,0.688-0.688,0.688c-0.348,0-0.671-0.263-0.689-0.678c0-0.003,0-0.007,0-0.01c0-1.138-0.926-2.065-2.063-2.065
		c-1.138,0-2.064,0.927-2.064,2.065c0,1.138,0.926,2.064,2.064,2.064c0.527,0,1.011-0.199,1.376-0.527
		c0.366,0.328,0.848,0.527,1.377,0.527c1.138,0,2.063-0.926,2.063-2.064c0-2.656-2.161-4.817-4.816-4.817
		c-2.656,0-4.817,2.161-4.817,4.817C5.505,9.219,6.337,10.735,7.729,11.627 M10.322,8.258c-0.379,0-0.688-0.309-0.688-0.688
		c0-0.38,0.309-0.688,0.688-0.688c0.353,0,0.644,0.267,0.683,0.609C10.995,7.554,10.993,7.617,11,7.68
		C10.947,8.006,10.664,8.258,10.322,8.258"/>
	<path clip-path="url(#SVGID_2_)" fill="#6D6E70" d="M20.644,9.037c0-0.178-0.072-0.356-0.201-0.486L17.892,6V0.688
		c0-0.38-0.308-0.688-0.688-0.688H3.441c-0.38,0-0.688,0.308-0.688,0.688V6L0.202,8.551C0.199,8.553,0.197,8.556,0.195,8.559
		C0.066,8.691,0,8.866,0,9.037v0.001v12.386c0,1.14,0.928,2.064,2.065,2.064H18.58c1.139,0,2.063-0.928,2.063-2.064V9.037
		L20.644,9.037z M18.982,9.038l-1.091,1.091V7.946L18.982,9.038z M16.515,1.376v4.909v5.22L12.79,15.23H7.854l-3.726-3.726v-5.22
		V1.376H16.515z M2.753,10.129L1.662,9.038l1.091-1.092V10.129z M1.376,21.139v-10.44l5.22,5.22L1.376,21.139z M2.35,22.112
		l5.505-5.506h4.936l5.505,5.506H2.35z M19.268,21.139l-5.22-5.22l5.22-5.22V21.139z"/>
</g>
</svg>
