<?xml version="1.0" encoding="utf-8"?>
<!-- Generator: Adobe Illustrator 16.0.0, SVG Export Plug-In . SVG Version: 6.00 Build 0)  -->
<!DOCTYPE svg PUBLIC "-//W3C//DTD SVG 1.1//EN" "http://www.w3.org/Graphics/SVG/1.1/DTD/svg11.dtd">
<svg version="1.1" id="Layer_1" xmlns="http://www.w3.org/2000/svg" xmlns:xlink="http://www.w3.org/1999/xlink" x="0px" y="0px"
	 width="26.451px" height="37.62px" viewBox="0 0 26.451 37.62" enable-background="new 0 0 26.451 37.62" xml:space="preserve">
<g>
	<path fill="#6D6E70" d="M13.226,0C5.933,0,0,5.933,0,13.226c0,2.464,0.682,4.868,1.974,6.954l10.499,16.919
		c0.201,0.324,0.555,0.521,0.936,0.521h0.009c0.384-0.003,0.739-0.206,0.938-0.536l10.23-17.082
		c1.221-2.042,1.865-4.385,1.865-6.775C26.451,5.933,20.519,0,13.226,0 M22.694,18.87L13.393,34.4L3.848,19.019
		c-1.076-1.736-1.659-3.74-1.659-5.793c0-6.077,4.959-11.036,11.037-11.036s11.028,4.959,11.028,11.036
		C24.254,15.218,23.71,17.171,22.694,18.87"/>
	<path fill="#6D6E70" d="M13.226,6.613c-3.646,0-6.613,2.966-6.613,6.613c0,3.623,2.918,6.613,6.613,6.613
		c3.74,0,6.613-3.03,6.613-6.613C19.839,9.579,16.872,6.613,13.226,6.613 M13.226,17.649c-2.444,0-4.423-1.986-4.423-4.423
		c0-2.431,1.992-4.423,4.423-4.423c2.431,0,4.416,1.992,4.416,4.423C17.642,15.627,15.708,17.649,13.226,17.649"/>
</g>
</svg>
