<?xml version="1.0" encoding="utf-8"?>
<!-- Generator: Adobe Illustrator 16.0.0, SVG Export Plug-In . SVG Version: 6.00 Build 0)  -->
<!DOCTYPE svg PUBLIC "-//W3C//DTD SVG 1.1//EN" "http://www.w3.org/Graphics/SVG/1.1/DTD/svg11.dtd">
<svg version="1.1" id="Layer_1" xmlns="http://www.w3.org/2000/svg" xmlns:xlink="http://www.w3.org/1999/xlink" x="0px" y="0px"
	 width="53.527px" height="53.529px" viewBox="0 0 53.527 53.529" enable-background="new 0 0 53.527 53.529" xml:space="preserve">
<g>
	<defs>
		<rect id="SVGID_1_" y="0" width="53.527" height="53.529"/>
	</defs>
	<clipPath id="SVGID_2_">
		<use xlink:href="#SVGID_1_"  overflow="visible"/>
	</clipPath>
	<path clip-path="url(#SVGID_2_)" fill="#fff" d="M52.151,39.481l-6.655-6.654c-1.835-1.834-4.819-1.834-6.653,0l-3.025,3.024
		c-1.39,1.39-3.652,1.389-5.041,0L17.667,22.73c-1.393-1.393-1.394-3.648,0-5.041c0.487-0.488,1.886-1.887,3.024-3.025
		c1.827-1.827,1.852-4.803-0.001-6.656l-6.653-6.632c-1.835-1.835-4.82-1.835-6.65-0.005c-1.369,1.357-1.81,1.795-2.424,2.404
		c-6.616,6.615-6.616,17.38-0.001,23.996l20.774,20.784c6.631,6.631,17.364,6.632,23.996,0l2.42-2.42
		C53.985,44.301,53.985,41.315,52.151,39.481 M43.278,35.045l6.655,6.654c0.61,0.611,0.61,1.606,0,2.219l-1.109,1.108l-8.873-8.873
		l1.109-1.108C41.672,34.434,42.667,34.434,43.278,35.045 M11.82,3.597l6.652,6.631c0.613,0.613,0.613,1.606,0,2.219l-1.109,1.109
		L8.496,4.688L9.6,3.595C10.211,2.984,11.207,2.983,11.82,3.597 M27.953,46.338L7.18,25.554c-5.119-5.119-5.4-13.156-0.865-18.611
		l8.841,8.842c-2.323,2.633-2.227,6.646,0.291,9.164l13.11,13.121h0.001c2.515,2.516,6.526,2.618,9.164,0.292l8.841,8.842
		C41.126,51.729,33.107,51.491,27.953,46.338"/>
</g>
</svg>
