<?xml version="1.0" encoding="utf-8"?>
<!-- Generator: Adobe Illustrator 16.0.0, SVG Export Plug-In . SVG Version: 6.00 Build 0)  -->
<!DOCTYPE svg PUBLIC "-//W3C//DTD SVG 1.1//EN" "http://www.w3.org/Graphics/SVG/1.1/DTD/svg11.dtd">
<svg version="1.1" id="Layer_1" xmlns="http://www.w3.org/2000/svg" xmlns:xlink="http://www.w3.org/1999/xlink" x="0px" y="0px"
	 width="478.856px" height="462.891px" viewBox="0 0 478.856 462.891" enable-background="new 0 0 478.856 462.891"
	 xml:space="preserve">
<g>
	<path fill="#fff" d="M406.856,189.747c3.781,0.004,6.852-3.058,6.855-6.84v-0.016v-24c0.004-3.782-3.058-6.852-6.84-6.856h-0.016h-400
		c-3.782-0.004-6.852,3.058-6.856,6.84c0,0.005,0,0.011,0,0.016v192c-0.004,3.782,3.058,6.852,6.84,6.856h0.016h272
		c3.785,0,6.855-3.07,6.855-6.856s-3.07-6.856-6.855-6.856H13.712V165.747H400v17.144c-0.004,3.782,3.058,6.852,6.84,6.856H406.856z
		"/>
	<path fill="#fff" d="M35.184,49.099c-1.537,0.979-2.624,2.526-3.024,4.304l-16,72c-0.822,3.698,1.51,7.362,5.208,8.184
		c3.698,0.822,7.362-1.51,8.184-5.208l14.504-65.288l313.295,70.488c0.496,0.115,1.004,0.171,1.513,0.168
		c3.786-0.007,6.85-3.082,6.844-6.868c-0.006-3.201-2.226-5.972-5.348-6.676l-320-72C38.584,47.806,36.723,48.128,35.184,49.099"/>
	<path fill="#fff" d="M117.008,41.963l13.128-26.272l186.072,77.528c3.504,1.462,7.53-0.192,8.992-3.696c1.462-3.504-0.192-7.53-3.696-8.992
		l-192-80c-3.337-1.391-7.182,0.038-8.8,3.272l-16,32c-1.807,3.342-0.563,7.517,2.78,9.324c3.342,1.807,7.517,0.563,9.324-2.779
		c0.071-0.132,0.138-0.265,0.2-0.401V41.963z"/>
	<path fill="#fff" d="M333.208,190.891c0-3.786-3.07-6.856-6.856-6.856h-63.495c-3.786,0-6.856,3.07-6.856,6.856s3.07,6.856,6.856,6.856h63.495
		C330.138,197.747,333.208,194.677,333.208,190.891"/>
	<path fill="#fff" d="M198.856,325.292c38.881,0,70.4-31.52,70.4-70.4s-31.519-70.4-70.4-70.4s-70.4,31.519-70.4,70.4
		C128.496,293.755,159.992,325.251,198.856,325.292 M198.856,197.291c31.812,0,57.6,25.788,57.6,57.6
		c0,31.812-25.788,57.6-57.6,57.6s-57.6-25.788-57.6-57.6C141.291,223.094,167.059,197.326,198.856,197.291"/>
	<path fill="#fff" d="M390.856,206.891c-42.4,0-88,10.016-88,32v192c0,21.984,45.6,32,88,32c42.399,0,88-10.016,88-32v-192
		C478.856,216.907,433.256,206.891,390.856,206.891 M462.856,398.771c-1.208,4.44-25.2,16.12-72,16.12c-46.801,0-70.792-11.68-72-16
		v-12.576c17.023,8.576,45.144,12.576,72,12.576c26.855,0,54.983-4.04,72-12.584V398.771z M462.856,366.771
		c-1.208,4.44-25.2,16.12-72,16.12c-46.801,0-70.792-11.68-72-16v-12.576c17.023,8.576,45.144,12.576,72,12.576
		c26.855,0,54.983-4.04,72-12.584V366.771z M462.856,334.771c-1.208,4.44-25.2,16.12-72,16.12c-46.801,0-70.792-11.68-72-16v-12.576
		c17.023,8.576,45.144,12.576,72,12.576c26.855,0,54.983-4.04,72-12.584V334.771z M462.856,302.771c-1.208,4.44-25.2,16.12-72,16.12
		c-46.801,0-70.792-11.68-72-16v-12.576c17.023,8.536,45.144,12.576,72,12.576c26.855,0,54.983-4.04,72-12.584V302.771z
		 M462.856,270.771c-1.208,4.44-25.2,16.12-72,16.12c-46.801,0-70.792-11.68-72-16v-12.576c17.023,8.536,45.144,12.576,72,12.576
		c26.855,0,54.983-4.04,72-12.584V270.771z M390.856,222.891c46.399,0,70.399,11.472,72,16c-1.601,4.528-25.601,16-72,16
		c-46.729,0-70.713-11.648-72-15.856v-0.048C320.144,234.531,344.128,222.891,390.856,222.891 M390.856,446.891
		c-46.801,0-70.792-11.68-72-16v-12.576c17.023,8.576,45.144,12.576,72,12.576c26.855,0,54.983-4.04,72-12.584v12.464
		C461.648,435.211,437.656,446.891,390.856,446.891"/>
	<path fill="#fff" d="M77.376,197.747h57.48c3.786,0,6.856-3.07,6.856-6.856s-3.07-6.856-6.856-6.856H74.592c-1.792-0.004-3.515,0.694-4.8,1.944
		l-35.736,34.856c-1.335,1.56-2.067,3.547-2.064,5.6v56.896c0,1.711,0.639,3.359,1.792,4.624l32.504,35.552
		c1.299,1.422,3.137,2.232,5.064,2.231h63.504c3.786,0,6.856-3.069,6.856-6.855s-3.07-6.856-6.856-6.856H74.384l-28.672-31.359v-52
		L77.376,197.747z"/>
	<path fill="#fff" d="M202.856,266.891h-20c-4.418,0-8,3.582-8,8s3.582,8,8,8h8c0,4.418,3.582,8,8,8s8-3.582,8-8v-0.36
		c8.873-1.253,15.595-8.647,16-17.6c-0.573-10.489-9.507-18.548-20-18.04h-8c-2.488,0-4-1.392-4-2s1.512-2,4-2h20
		c4.418,0,8-3.582,8-8s-3.582-8-8-8h-8c0-4.418-3.582-8-8-8s-8,3.582-8,8v0.36c-8.873,1.253-15.595,8.648-16,17.6
		c0.573,10.489,9.507,18.548,20,18.04h8c2.488,0,4,1.392,4,2S205.344,266.891,202.856,266.891"/>
</g>
</svg>
