<?xml version="1.0" encoding="utf-8"?>
<!-- Generator: Adobe Illustrator 16.0.0, SVG Export Plug-In . SVG Version: 6.00 Build 0)  -->
<!DOCTYPE svg PUBLIC "-//W3C//DTD SVG 1.1//EN" "http://www.w3.org/Graphics/SVG/1.1/DTD/svg11.dtd">
<svg version="1.1" id="Layer_1" xmlns="http://www.w3.org/2000/svg" xmlns:xlink="http://www.w3.org/1999/xlink" x="0px" y="0px"
	 width="375.467px" height="307.192px" viewBox="0 0 375.467 307.192" enable-background="new 0 0 375.467 307.192"
	 xml:space="preserve">
<g>
	<path fill="#fff" d="M34.134,238.933h8.533v51.184c-0.006,6.906,4.151,13.134,10.531,15.775c6.38,2.644,13.724,1.179,18.602-3.709
		c0.205-0.2,0.397-0.414,0.575-0.638l51.138-62.612h217.821c18.842-0.021,34.11-15.291,34.133-34.133V34.133
		C375.444,15.292,360.176,0.021,341.334,0h-307.2C15.291,0.021,0.021,15.292,0,34.133V204.8
		C0.021,223.642,15.291,238.912,34.134,238.933 M17.067,34.133c0.009-9.422,7.645-17.057,17.067-17.067h307.2
		c9.421,0.01,17.057,7.645,17.065,17.067V204.8c-0.009,9.421-7.645,17.058-17.065,17.066H119.467c-0.144,0-0.263,0.075-0.405,0.082
		c-1.097,0.165-2.176,0.431-3.224,0.796c-0.444,0.245-0.865,0.529-1.258,0.849c-0.507,0.33-0.975,0.715-1.398,1.146
		c-0.097,0.106-0.231,0.151-0.323,0.265l-53.125,65.042v-59.646c0-4.714-3.821-8.534-8.534-8.534H34.134
		c-9.422-0.009-17.058-7.646-17.067-17.066V34.133z"/>
	<path fill="#fff" d="M188.129,66.208h-0.024c-4.713,0.002-8.531,3.825-8.529,8.538c0.002,4.712,3.825,8.531,8.538,8.529h0.017
		c4.707,0.005,8.523,3.817,8.533,8.524c0.005,4.71,3.824,8.525,8.533,8.525h0.009c4.713-0.005,8.529-3.829,8.525-8.542
		C213.7,77.66,202.251,66.223,188.129,66.208"/>
	<path fill="#fff" d="M85.608,100.341l17.067-0.017c4.713-0.002,8.531-3.825,8.529-8.538c-0.003-4.712-3.825-8.531-8.538-8.529h-0.008
		l-17.067,0.017c-4.713,0.003-8.531,3.825-8.529,8.538s3.825,8.531,8.537,8.529H85.608z"/>
	<path fill="#fff" d="M88.962,64.891l16.042,5.821c2.869,1.054,6.082,0.493,8.424-1.47c2.343-1.964,3.456-5.03,2.919-8.039
		s-2.642-5.501-5.518-6.533l-16.042-5.821c-4.425-1.59-9.302,0.699-10.907,5.118C82.275,58.387,84.548,63.272,88.962,64.891"/>
	<path fill="#fff" d="M105.042,113.045l-16.033,5.85c-2.864,1.045-4.953,3.539-5.481,6.542c-0.527,3.002,0.588,6.058,2.926,8.016
		c2.337,1.958,5.541,2.52,8.405,1.475l16.033-5.85c2.864-1.045,4.953-3.538,5.48-6.541c0.527-3.003-0.588-6.059-2.925-8.017
		S107.906,112,105.042,113.045"/>
	<path fill="#fff" d="M290.4,83.241h-0.01l-17.065,0.017c-4.689,0.035-8.472,3.848-8.469,8.537c0.002,4.69,3.787,8.499,8.477,8.529h0.009
		l17.067-0.017c4.712-0.002,8.531-3.825,8.528-8.537C298.935,87.057,295.113,83.238,290.4,83.241z"/>
	<path fill="#fff" d="M268.292,71.087c0.998-0.002,1.987-0.178,2.925-0.521l16.029-5.85c2.863-1.045,4.952-3.538,5.479-6.541
		s-0.588-6.059-2.925-8.017s-5.541-2.52-8.405-1.475l-16.029,5.85c-3.889,1.42-6.197,5.426-5.478,9.503
		C260.609,68.113,264.151,71.086,268.292,71.087z"/>
	<path fill="#fff" d="M287.296,118.725l-16.042-5.825c-4.424-1.59-9.302,0.698-10.907,5.118c-1.604,4.419,0.668,9.304,5.082,10.924l16.042,5.825
		c4.423,1.583,9.294-0.706,10.897-5.122C293.972,125.229,291.704,120.347,287.296,118.725"/>
	<path fill="#fff" d="M195.184,32.482c-26.493-3.22-51.906,11.531-62.25,36.133c-10.343,24.603-3.106,53.081,17.729,69.759
		c2.017,1.587,3.197,4.009,3.204,6.575v6.575c0.019,6.065,3.267,11.662,8.523,14.688l0.011,10.921
		c0.028,8.219,3.989,15.928,10.654,20.737c4.339,3.151,9.566,4.847,14.929,4.842c2.855-0.005,5.691-0.467,8.4-1.371
		c10.558-3.768,17.506-13.885,17.229-25.092l-0.008-10.034c5.26-3.025,8.51-8.623,8.529-14.691v-6.55
		c0.054-2.66,1.312-5.152,3.421-6.775c16.737-13.42,24.93-34.83,21.425-55.995C242.522,56.045,221.501,35.867,195.184,32.482
		 M191.021,185.141c-2.679,0.963-5.66,0.549-7.975-1.108c-2.232-1.599-3.563-4.171-3.579-6.917l-0.008-8.524h17.083l0.005,7.675
		C196.722,180.083,194.524,183.613,191.021,185.141 M214.833,124.92c-6.132,4.855-9.725,12.233-9.767,20.054v6.521h-0.008
		l-34.125,0.029v-6.575c0.005-7.755-3.536-15.086-9.612-19.904c-14.106-11.323-19.537-30.312-13.551-47.381
		c5.986-17.069,22.087-28.507,40.175-28.54c1.754,0,3.505,0.103,5.246,0.309c18.758,2.405,33.745,16.779,36.929,35.42
		C232.639,99.99,226.794,115.308,214.833,124.92"/>
</g>
</svg>
