<?xml version="1.0" encoding="utf-8"?>
<!-- Generator: Adobe Illustrator 16.0.0, SVG Export Plug-In . SVG Version: 6.00 Build 0)  -->
<!DOCTYPE svg PUBLIC "-//W3C//DTD SVG 1.1//EN" "http://www.w3.org/Graphics/SVG/1.1/DTD/svg11.dtd">
<svg version="1.1" id="Layer_1" xmlns="http://www.w3.org/2000/svg" xmlns:xlink="http://www.w3.org/1999/xlink" x="0px" y="0px"
	 width="211.485px" height="183.395px" viewBox="0 0 211.485 183.395" enable-background="new 0 0 211.485 183.395"
	 xml:space="preserve">
<g>
	<path  fill="#fff" d="M207.267,47.278L164.215,4.227C161.488,1.5,157.867,0,154.013,0c-3.856,0-7.478,1.5-10.203,4.227l-10.118,10.117
		c-1.554,1.555-2.664,3.387-3.363,5.336l-47.332-8.477h-0.012c-21.281-4.226-42.062,9.61-46.355,30.899L34.445,52.93
		c-2.41,11.961,5.36,23.648,17.317,26.062c11.961,2.407,23.652-5.359,26.062-17.32l1.336-6.621l21.227,1.855l55.429,55.434
		l10.047,10.047c2.035,2.035,2.035,5.344,0,7.379c-2.031,2.031-5.343,2.035-7.379,0l-26.91-26.91c-1.875-1.875-4.914-1.875-6.789,0
		c-1.871,1.871-1.871,4.91,0,6.785l26.914,26.914c0.985,0.983,1.528,2.293,1.528,3.687c0,1.396-0.543,2.704-1.528,3.688
		c-2.035,2.035-5.347,2.035-7.379,0l-26.91-26.91c-1.875-1.875-4.918-1.875-6.789,0c-1.875,1.875-1.875,4.914,0,6.789l26.91,26.91
		c2.035,2.035,2.035,5.344,0,7.379c-0.984,0.983-2.297,1.527-3.687,1.527c-1.396,0-2.707-0.544-3.692-1.527l-26.91-26.91
		c-1.875-1.875-4.914-1.875-6.789,0s-1.875,4.914,0,6.785l26.91,26.914c2.035,2.035,2.035,5.344,0,7.379
		c-2.031,2.031-5.343,2.035-7.375,0L8.195,64.473c-1.875-1.875-4.914-1.875-6.789,0s-1.875,4.914,0,6.789L27.664,97.52l-7.543,7.543
		c-2.469,2.468-3.832,5.754-3.832,9.246c0,3.496,1.363,6.781,3.832,9.25l2.461,2.461c2.16,2.16,4.941,3.468,7.941,3.765
		c0.297,3,1.606,5.782,3.766,7.938l2.461,2.465c2.215,2.215,5.039,3.465,7.938,3.754c0.292,3.004,1.605,5.789,3.769,7.949
		l2.461,2.461c2.16,2.16,4.941,3.472,7.937,3.765c0.297,3,1.61,5.782,3.766,7.942l2.465,2.461c2.547,2.551,5.898,3.824,9.246,3.824
		c3.348,0,6.695-1.273,9.246-3.824l7.543-7.543l18.078,18.078c2.797,2.797,6.521,4.34,10.478,4.34c3.956,0,7.679-1.543,10.476-4.34
		c2.653-2.652,4.157-6.137,4.309-9.859c3.728-0.152,7.207-1.657,9.859-4.309c2.735-2.734,4.157-6.277,4.305-9.863
		c3.586-0.148,7.129-1.571,9.863-4.305c2.731-2.731,4.157-6.273,4.301-9.863c3.59-0.149,7.133-1.571,9.863-4.301
		c5.778-5.781,5.778-15.18,0-20.957L166,108.946l24.34-24.34l16.927-16.922C212.892,62.055,212.892,52.903,207.267,47.278
		 M26.91,116.77c-1.355-1.356-1.355-3.563,0-4.918l7.074-7.074l7.379,7.378l-7.074,7.075c-1.355,1.355-3.562,1.355-4.918,0
		L26.91,116.77z M41.078,130.938c-1.359-1.36-1.359-3.563,0-4.918l7.07-7.074l7.379,7.378l-7.07,7.075
		c-1.355,1.355-3.562,1.355-4.918,0L41.078,130.938z M55.242,145.102c-0.656-0.656-1.019-1.528-1.019-2.457
		c0-0.926,0.363-1.801,1.019-2.457l7.074-7.075l7.379,7.379l-7.074,7.075c-1.355,1.355-3.562,1.355-4.918,0L55.242,145.102z
		 M76.789,161.731c-1.355,1.359-3.562,1.355-4.918,0l-2.461-2.461c-1.355-1.356-1.355-3.563,0-4.918l7.074-7.074l7.379,7.382
		L76.789,161.731z M159.211,102.156l-53.272-53.273c-0.797-0.797-1.852-1.289-2.977-1.387l-27.242-2.383
		c-0.141-0.011-0.281-0.015-0.422-0.015c-2.262,0-4.246,1.594-4.699,3.851l-2.184,10.829c-1.363,6.769-7.98,11.168-14.754,9.8
		c-3.277-0.66-6.105-2.558-7.957-5.343c-1.851-2.789-2.508-6.129-1.844-9.407l2.18-10.832c3.254-16.133,19.02-26.617,35.164-23.363
		c0.031,0.008,0.067,0.016,0.102,0.02l46.644,8.351l52.207,52.207L159.211,102.156z M200.478,60.895l-13.532,13.531L140.48,27.961
		c-0.914-0.914-1.414-2.125-1.414-3.418c0-1.289,0.5-2.5,1.414-3.414l10.118-10.117c0.909-0.91,2.125-1.414,3.414-1.414
		s2.5,0.504,3.414,1.414l43.051,43.051c0.91,0.91,1.414,2.125,1.414,3.414C201.892,58.77,201.388,59.981,200.478,60.895"/>
	<path fill="#fff" d="M193.656,59.383c0,2.652-2.148,4.801-4.801,4.801c-2.648,0-4.8-2.149-4.8-4.801c0-2.648,2.151-4.797,4.8-4.797
		C191.508,54.586,193.656,56.735,193.656,59.383"/>
</g>
</svg>
