<?xml version="1.0" encoding="utf-8"?>
<!-- Generator: Adobe Illustrator 16.0.0, SVG Export Plug-In . SVG Version: 6.00 Build 0)  -->
<!DOCTYPE svg PUBLIC "-//W3C//DTD SVG 1.1//EN" "http://www.w3.org/Graphics/SVG/1.1/DTD/svg11.dtd">
<svg version="1.1" id="Layer_1" xmlns="http://www.w3.org/2000/svg" xmlns:xlink="http://www.w3.org/1999/xlink" x="0px" y="0px"
	 width="38.398px" height="48px" viewBox="0 0 38.398 48" enable-background="new 0 0 38.398 48" xml:space="preserve">
<g>
	<path fill="#fff" d="M38.164,46.633L36,44.469v-28l-4-4V0H0v41.602h4v4h30.867l2.168,2.164C37.191,47.922,37.395,48,37.602,48
		c0.203,0,0.406-0.078,0.563-0.234C38.477,47.453,38.477,46.945,38.164,46.633 M33.27,16H24V6.73L33.27,16z M1.602,40V1.602h28.796
		v9.265L23.531,4H4v36H1.602z M5.602,44V5.602h16.796v12h12v25.265l-6.008-6.008c1.391-1.648,2.234-3.773,2.234-6.098
		c0-5.219-4.246-9.461-9.461-9.461c-5.219,0-9.465,4.242-9.465,9.461s4.246,9.465,9.465,9.465c2.32,0,4.445-0.848,6.094-2.238
		L33.27,44H5.602z M21.164,38.625c-4.336,0-7.863-3.527-7.863-7.863s3.527-7.864,7.863-7.864c4.332,0,7.859,3.528,7.859,7.864
		S25.496,38.625,21.164,38.625"/>
	<path fill="#fff" d="M16.5,28.801h4.801c0.441,0,0.801-0.359,0.801-0.801s-0.359-0.801-0.801-0.801H16.5c-0.441,0-0.801,0.359-0.801,0.801
		S16.059,28.801,16.5,28.801"/>
	<path fill="#fff" d="M26.102,32H16.5c-0.441,0-0.801,0.359-0.801,0.801s0.36,0.801,0.801,0.801h9.602c0.441,0,0.797-0.359,0.797-0.801
		S26.543,32,26.102,32"/>
</g>
</svg>
