<?xml version="1.0" encoding="utf-8"?>
<!-- Generator: Adobe Illustrator 16.0.0, SVG Export Plug-In . SVG Version: 6.00 Build 0)  -->
<!DOCTYPE svg PUBLIC "-//W3C//DTD SVG 1.1//EN" "http://www.w3.org/Graphics/SVG/1.1/DTD/svg11.dtd">
<svg version="1.1" id="Layer_1" xmlns="http://www.w3.org/2000/svg" xmlns:xlink="http://www.w3.org/1999/xlink" x="0px" y="0px"
	 width="40px" height="43.199px" viewBox="0 0 40 43.199" enable-background="new 0 0 40 43.199" xml:space="preserve">
<g>
	<path fill="#fff" d="M20,6.398C12.5,6.398,6.398,12.5,6.398,20c0,5.691,3.516,10.73,8.801,12.719V40c0,0.441,0.36,0.801,0.801,0.801h0.801
		v1.598c0,0.445,0.355,0.801,0.801,0.801h4.796c0.445,0,0.801-0.355,0.801-0.801v-1.598H24c0.441,0,0.801-0.359,0.801-0.801v-7.281
		c5.285-1.988,8.801-7.027,8.801-12.719C33.602,12.5,27.5,6.398,20,6.398 M22.398,39.199c-0.441,0-0.797,0.36-0.797,0.801v1.603
		h-3.204V40c0-0.44-0.355-0.801-0.796-0.801h-0.801v-4h6.398v4H22.398z M23.75,31.396c-0.328,0.104-0.551,0.414-0.551,0.757v1.45
		h-6.398v-1.45c0-0.343-0.223-0.652-0.551-0.757C11.316,29.771,8,25.191,8,20c0-6.617,5.383-12,12-12s12,5.383,12,12
		C32,25.191,28.684,29.771,23.75,31.396"/>
	<path fill="#fff" d="M20,4.801c0.441,0,0.801-0.36,0.801-0.801V0.801C20.801,0.359,20.441,0,20,0c-0.441,0-0.801,0.359-0.801,0.801V4
		C19.199,4.441,19.559,4.801,20,4.801"/>
	<path fill="#fff" d="M39.199,19.199H36c-0.441,0-0.801,0.36-0.801,0.801c0,0.441,0.359,0.801,0.801,0.801h3.199C39.641,20.801,40,20.441,40,20
		C40,19.559,39.641,19.199,39.199,19.199"/>
	<path fill="#fff" d="M4,19.199H0.801C0.359,19.199,0,19.559,0,20c0,0.441,0.359,0.801,0.801,0.801H4c0.441,0,0.801-0.36,0.801-0.801
		C4.801,19.559,4.441,19.199,4,19.199"/>
	<path fill="#fff" d="M33.012,5.859L30.75,8.121c-0.312,0.313-0.312,0.816,0,1.129c0.156,0.156,0.359,0.234,0.562,0.234
		c0.208,0,0.411-0.078,0.567-0.234l2.262-2.262c0.316-0.312,0.316-0.816,0-1.129C33.828,5.543,33.324,5.547,33.012,5.859"/>
	<path fill="#fff" d="M8.121,30.75l-2.262,2.263c-0.316,0.312-0.316,0.815,0,1.129c0.153,0.155,0.36,0.233,0.563,0.233
		c0.207,0,0.41-0.078,0.566-0.233l2.262-2.263c0.312-0.313,0.312-0.816,0-1.129S8.434,30.438,8.121,30.75"/>
	<path fill="#fff" d="M31.879,30.75c-0.313-0.313-0.817-0.313-1.129,0s-0.312,0.816,0,1.129l2.262,2.263c0.156,0.155,0.359,0.233,0.566,0.233
		c0.203,0,0.41-0.078,0.563-0.233c0.316-0.313,0.316-0.817,0-1.129L31.879,30.75z"/>
	<path fill="#fff" d="M8.121,9.25C8.277,9.406,8.48,9.484,8.688,9.484c0.203,0,0.406-0.078,0.562-0.234c0.312-0.313,0.312-0.816,0-1.129
		L6.988,5.859c-0.312-0.316-0.816-0.316-1.129,0c-0.316,0.313-0.316,0.817,0,1.129L8.121,9.25z"/>
	<path fill="#fff" d="M20,10.398c-5.293,0-9.602,4.309-9.602,9.602c0,0.441,0.36,0.801,0.801,0.801C11.641,20.801,12,20.441,12,20
		c0-4.41,3.59-8,8-8c0.441,0,0.801-0.359,0.801-0.801C20.801,10.758,20.441,10.398,20,10.398"/>
</g>
</svg>
