<?xml version="1.0" encoding="utf-8"?>
<!-- Generator: Adobe Illustrator 16.0.0, SVG Export Plug-In . SVG Version: 6.00 Build 0)  -->
<!DOCTYPE svg PUBLIC "-//W3C//DTD SVG 1.1//EN" "http://www.w3.org/Graphics/SVG/1.1/DTD/svg11.dtd">
<svg version="1.1" id="Layer_1" xmlns="http://www.w3.org/2000/svg" xmlns:xlink="http://www.w3.org/1999/xlink" x="0px" y="0px"
	 width="91.165px" height="87.405px" viewBox="0 0 91.165 87.405" enable-background="new 0 0 91.165 87.405" xml:space="preserve">
<g>
	<path stroke-width=".8" stroke="#fff" fill="#fff" d="M49.326,40.265l-0.116-0.622c-0.005-0.007-0.005-0.011-0.009-0.019c-0.004-0.008-0.004-0.016-0.008-0.024
		c-0.007-0.015-0.011-0.027-0.019-0.039c-0.004-0.004-0.004-0.007-0.009-0.011c-0.012-0.016-0.022-0.028-0.038-0.035h-0.009
		l-10.508-3.477c-0.086-0.043-0.203,0-0.308,0.109l-8.672,9.418c-0.051,0.047-0.098,0.102-0.133,0.172
		c-0.105,0.195-0.098,0.403,0.016,0.465h0.004l3.582,1.965l0.273,0.152l1.355,0.738l0.286,0.161l3.504,1.918l0.082,0.046
		l0.558,0.305c0.082,0.047,0.199,0.004,0.301-0.101l9.707-10.653C49.287,40.6,49.354,40.405,49.326,40.265 M45.943,39.343
		l-1.312,1.437l-0.512,0.195l-2.027-0.785v-0.418l1.203-1.312L45.943,39.343z M39.327,42.136l-0.031,0.445l-1.086,1.191
		l-0.555,0.215l-1.769-0.781v-0.399l1.136-1.242l0.5-0.175L39.327,42.136z M37.741,40.776l1.11-1.211l0.472-0.164l1.891,0.731
		l-0.024,0.386l-1.129,1.231l-0.503,0.195l-1.809-0.75L37.741,40.776z M37.456,44.19l-0.031,0.438l-1.031,1.129L35.92,45.94
		l-1.762-0.828l-0.004-0.414l1.004-1.094l0.543-0.191L37.456,44.19z M37.64,44.64l0.468-0.165l1.961,0.872l-0.027,0.444l-1.07,1.164
		l-0.489,0.188l-1.972-0.925l-0.004-0.345L37.64,44.64z M38.334,44.288l-0.004-0.402l1.16-1.27l0.543-0.191l1.973,0.816
		l-0.028,0.438l-1.214,1.32l-0.438,0.168L38.334,44.288z M40.202,42.21v-0.367l1.219-1.332l0.402-0.141l2.106,0.816l-0.024,0.383
		l-1.16,1.266l-0.531,0.207L40.202,42.21z M43.124,38.401l-1.133,1.239l-0.656,0.253l-1.781-0.687l-0.004-0.402l1.117-1.219
		L43.124,38.401z M38.366,36.815l2.129,0.711l-1.074,1.172l-0.59,0.227l-1.773-0.684L38.366,36.815z M36.861,38.448l1.809,0.699
		l-0.024,0.399l-1.054,1.152l-0.543,0.207l-1.774-0.734L36.861,38.448z M35.084,40.382l1.781,0.738l-0.023,0.398l-1.117,1.219
		l-0.477,0.184l-1.781-0.785L35.084,40.382z M33.275,42.343l1.735,0.765l-0.028,0.442l-0.972,1.062l-0.504,0.195l-1.742-0.82
		L33.275,42.343z M30.209,45.67l1.367-1.48l1.703,0.801l-0.027,0.445l-1.16,1.27L30.209,45.67z M32.245,46.788l1.195-1.309
		l0.5-0.175l1.696,0.796l-0.032,0.52l-1.226,1.336L32.245,46.788z M34.529,48.038l1.293-1.41l0.531-0.188l1.872,0.879l-0.032,0.488
		l-1.367,1.492L34.529,48.038z M38.904,50.44l-1.929-1.059l1.425-1.559l0.516-0.18l1.777,0.836L38.904,50.44z M40.881,48.276
		l-1.781-0.84l-0.004-0.371l1.097-1.199l0.59-0.207l1.77,0.785L40.881,48.276z M42.745,46.237l-1.801-0.797l-0.004-0.386
		l1.235-1.353l0.512-0.176l1.839,0.762L42.745,46.237z M44.717,44.077l-1.836-0.758v-0.383l1.179-1.293l0.555-0.195l1.852,0.719
		L44.717,44.077z M46.658,41.956l-1.851-0.715l-0.004-0.41l1.312-1.43l2.207,0.735L46.658,41.956z M63.443,45.366l-0.14-0.726
		c-0.004-0.009-0.004-0.017-0.008-0.024c-0.005-0.012-0.005-0.019-0.013-0.027c-0.004-0.016-0.012-0.031-0.019-0.047
		c-0.004-0.004-0.008-0.008-0.012-0.016c-0.013-0.015-0.027-0.031-0.048-0.039c0,0,0-0.004-0.004-0.004l-12.293-4.062
		c-0.098-0.051-0.237,0-0.358,0.129L40.404,51.565c-0.058,0.055-0.113,0.121-0.156,0.203c-0.121,0.227-0.113,0.469,0.02,0.539
		l0.003,0.004l4.192,2.297l0.32,0.176l1.582,0.867l0.336,0.184l4.099,2.246l0.097,0.056l0.653,0.354
		c0.094,0.051,0.229,0.004,0.351-0.121l11.353-12.457C63.396,45.761,63.476,45.53,63.443,45.366 M59.486,44.288l-1.535,1.676
		l-0.598,0.23l-2.371-0.918v-0.484l1.407-1.535L59.486,44.288z M51.744,47.554l-0.03,0.519l-1.274,1.396l-0.652,0.25l-2.069-0.914
		v-0.461l1.336-1.457l0.582-0.204L51.744,47.554z M49.894,45.963l1.296-1.414l0.551-0.195l2.211,0.855l-0.026,0.449L52.607,47.1
		l-0.593,0.23l-2.118-0.879L49.894,45.963z M49.554,49.956l-0.032,0.513l-1.211,1.323l-0.55,0.211l-2.06-0.969l-0.004-0.479
		l1.172-1.286l0.634-0.219L49.554,49.956z M49.771,50.483l0.547-0.191l2.293,1.016l-0.031,0.52l-1.245,1.363l-0.578,0.223
		l-2.31-1.082v-0.401L49.771,50.483z M50.58,50.069V49.6l1.359-1.484l0.629-0.223l2.31,0.954l-0.031,0.507l-1.418,1.551L52.916,51.1
		L50.58,50.069z M52.769,47.64v-0.431l1.425-1.555l0.469-0.168l2.466,0.953l-0.027,0.453l-1.356,1.477l-0.621,0.242L52.769,47.64z
		 M56.187,43.186l-1.325,1.451l-0.769,0.296l-2.082-0.808l-0.004-0.469l1.304-1.426L56.187,43.186z M50.623,41.331l2.488,0.832
		l-1.258,1.371L51.166,43.8l-2.077-0.805L50.623,41.331z M48.865,43.241l2.113,0.82l-0.031,0.461l-1.229,1.348l-0.638,0.246
		l-2.073-0.859L48.865,43.241z M46.783,45.502l2.082,0.859l-0.022,0.469l-1.31,1.426l-0.562,0.216l-2.078-0.918L46.783,45.502z
		 M44.67,47.795l2.027,0.895l-0.035,0.52l-1.137,1.238l-0.586,0.231L42.9,49.718L44.67,47.795z M41.084,51.69l1.594-1.734
		l1.996,0.941l-0.031,0.52l-1.356,1.48L41.084,51.69z M43.459,52.995l1.406-1.531l0.582-0.202l1.981,0.933l-0.035,0.602
		l-1.434,1.566L43.459,52.995z M46.136,54.459l1.511-1.652l0.625-0.219l2.184,1.031l-0.03,0.566l-1.606,1.746L46.136,54.459z
		 M51.253,57.265l-2.259-1.239l1.672-1.82l0.599-0.211l2.082,0.98L51.253,57.265z M53.564,54.737l-2.086-0.984v-0.434l1.282-1.402
		l0.687-0.242l2.074,0.919L53.564,54.737z M55.744,52.35l-2.108-0.934l-0.004-0.453l1.444-1.577l0.599-0.207l2.155,0.89
		L55.744,52.35z M58.054,49.823L55.9,48.936v-0.445l1.383-1.512l0.649-0.23l2.164,0.84L58.054,49.823z M60.318,47.343l-2.164-0.837
		V46.03l1.532-1.676l2.582,0.859L60.318,47.343z M91.003,52.209L72.076,39.198c-0.098-0.09-0.226-0.129-0.414-0.133
		c-0.047,0.008-0.094,0.02-0.141,0.039l-31.691-7.117c-0.125,0-0.25,0.051-0.344,0.141l-4.679,4.367l-9.598-11.246
		c-0.168-0.192-0.461-0.207-0.652-0.035c-0.188,0.168-0.204,0.461-0.032,0.652l9.61,11.262l-9.09,8.488
		c-0.117,0.109-0.18,0.271-0.16,0.422c0.015,0.16,0.105,0.301,0.242,0.387l2.371,1.441l0.699,18.504l0.071,0.254
		c0.027,0.043,0.058,0.086,0.097,0.121l28.003,20.563c0.086,0.063,0.195,0.098,0.306,0.098c0.086,0,0.176-0.023,0.207-0.047
		l30.289-10.953l0.094-0.051c0.035-0.023,0.058-0.047,0.078-0.066l0.104-0.125c0.024-0.047,0.043-0.102,0.051-0.164l0.052-22.055
		l3.237-0.863c0.185-0.047,0.32-0.19,0.363-0.371C91.193,52.53,91.14,52.338,91.003,52.209 M26.236,45.901l8.563-7.996l0.418,0.488
		c0.031,0.039,0.07,0.071,0.109,0.094c0.168,0.098,0.391,0.082,0.543-0.058c0.188-0.172,0.207-0.461,0.035-0.653l-0.429-0.5
		l4.546-4.246l30.758,7.047L52.64,61.968L26.236,45.901z M28.545,48.506l20.773,12.641l-20.121,4.582L28.545,48.506z M56.158,85.881
		L29.917,66.616l20.66-4.703l1.949,1.185c0.082,0.05,0.172,0.073,0.266,0.073l0.039-0.004c0.017,0.004,0.039,0.004,0.063,0.004
		l3.265-0.852V85.881z M57.187,86.155V62.049l1.05-0.277l27.485,14.075L57.187,86.155z M86.494,75.093L59.71,61.381l26.809-7.125
		L86.494,75.093z M58.271,60.698c-0.078,0-0.156,0.021-0.226,0.059l-3.985,1.063l17.817-21.41l17.741,11.922L58.271,60.698z
		 M20.519,7.425C15.814,4.694,9.771,6.304,7.042,11.003c-2.727,4.703-1.121,10.75,3.582,13.476
		c4.703,2.727,10.75,1.121,13.477-3.582C26.827,16.194,25.222,10.151,20.519,7.425 M22.499,19.972
		c-2.215,3.82-7.129,5.125-10.949,2.91c-3.821-2.219-5.125-7.129-2.91-10.95c2.218-3.824,7.129-5.128,10.949-2.91
		C23.409,11.237,24.717,16.151,22.499,19.972 M6.674,6.647L4.9,4.667C4.771,4.526,4.752,4.323,4.827,4.163
		C4.854,4.108,4.89,4.057,4.939,4.015C5.127,3.847,5.42,3.862,5.588,4.05l1.777,1.976c0.168,0.192,0.153,0.485-0.039,0.656
		C7.174,6.819,6.956,6.835,6.788,6.737C6.749,6.714,6.709,6.682,6.674,6.647 M13.808,3.151l-0.274-2.644
		c-0.027-0.25,0.156-0.481,0.41-0.504c0.254-0.028,0.485,0.156,0.512,0.41l0.27,2.644c0.027,0.254-0.157,0.481-0.415,0.504
		c-0.097,0.012-0.195-0.007-0.277-0.058C13.913,3.432,13.818,3.304,13.808,3.151 M26.92,10.823c-0.106-0.23,0-0.504,0.234-0.609
		l2.426-1.074c0.238-0.106,0.512,0,0.613,0.234c0.102,0.234-0.004,0.504-0.238,0.609l-2.426,1.078
		c-0.14,0.063-0.297,0.047-0.418-0.023C27.025,10.991,26.959,10.917,26.92,10.823 M28.275,18.077l11.52,2.508
		c0.254,0.051,0.41,0.297,0.355,0.547c-0.054,0.25-0.3,0.41-0.55,0.355l-11.52-2.508c-0.051-0.011-0.094-0.027-0.137-0.05
		c-0.168-0.098-0.261-0.297-0.218-0.497C27.779,18.182,28.025,18.022,28.275,18.077 M17.433,28.589l1.386,13.472
		c0.028,0.254-0.156,0.481-0.414,0.508c-0.097,0.012-0.195-0.012-0.277-0.062c-0.125-0.071-0.211-0.2-0.227-0.352l-1.39-13.473
		c-0.028-0.253,0.16-0.484,0.414-0.507C17.174,28.151,17.404,28.335,17.433,28.589 M9.577,26.714
		c0.11,0.144,0.129,0.343,0.031,0.511l-1.332,2.297c-0.129,0.219-0.41,0.297-0.632,0.168c-0.219-0.129-0.297-0.41-0.168-0.633
		l1.332-2.296c0.129-0.223,0.41-0.297,0.632-0.168C9.495,26.624,9.542,26.667,9.577,26.714 M4.318,20.913
		c0.051,0.117,0.051,0.242,0.004,0.355c-0.039,0.11-0.125,0.204-0.242,0.254l-2.43,1.075c-0.136,0.066-0.293,0.05-0.418-0.024
		c-0.082-0.047-0.148-0.117-0.191-0.211c-0.051-0.117-0.051-0.242-0.008-0.351c0.024-0.055,0.055-0.11,0.098-0.153
		c0.039-0.043,0.09-0.082,0.148-0.105l2.43-1.074C3.943,20.573,4.213,20.679,4.318,20.913 M2.959,13.663l-2.594-0.559
		c-0.051-0.007-0.094-0.027-0.137-0.05c-0.168-0.098-0.261-0.297-0.218-0.497c0.011-0.066,0.039-0.121,0.074-0.167
		c0.102-0.149,0.285-0.231,0.476-0.188l2.594,0.559c0.254,0.05,0.414,0.3,0.36,0.546C3.456,13.557,3.209,13.718,2.959,13.663
		 M21.627,4.515l1.332-2.297c0.129-0.223,0.41-0.297,0.633-0.168c0.222,0.129,0.297,0.41,0.168,0.632l-1.336,2.297
		c-0.125,0.223-0.41,0.297-0.629,0.168C21.572,5.018,21.499,4.737,21.627,4.515"/>
</g>
</svg>
