<?xml version="1.0" encoding="utf-8"?>
<!-- Generator: Adobe Illustrator 16.0.0, SVG Export Plug-In . SVG Version: 6.00 Build 0)  -->
<!DOCTYPE svg PUBLIC "-//W3C//DTD SVG 1.1//EN" "http://www.w3.org/Graphics/SVG/1.1/DTD/svg11.dtd">
<svg version="1.1" id="Layer_1" xmlns="http://www.w3.org/2000/svg" xmlns:xlink="http://www.w3.org/1999/xlink" x="0px" y="0px"
	 width="376px" height="376px" viewBox="0 0 376 376" enable-background="new 0 0 376 376" xml:space="preserve">
<g>
	<path fill="#fff" d="M12.883,175.555h40.676l14.601,29.203c1.016,2.035,3.094,3.316,5.367,3.316c2.27,0,4.348-1.281,5.364-3.316l14.605-29.203
		h2.977c3.316,0,6-2.688,6-6c0-3.317-2.684-6-6-6h-6.688c-2.273,0-4.347,1.281-5.363,3.316L73.527,188.66l-10.894-21.789
		c-1.016-2.031-3.094-3.316-5.367-3.316H12.883c-0.485,0-0.883-0.395-0.883-0.883V12.883C12,12.398,12.398,12,12.883,12h121.285
		c0.488,0,0.883,0.398,0.883,0.883V77.93c0,3.312,2.687,6,6,6c3.316,0,6-2.688,6-6V12.883C147.051,5.781,141.273,0,134.168,0H12.883
		C5.781,0,0,5.781,0,12.883v149.789C0,169.773,5.781,175.555,12.883,175.555"/>
	<path fill="#fff" d="M73.527,24c-16.55,0-30.015,13.465-30.015,30.016c0,16.55,13.465,30.015,30.015,30.015
		c16.547,0,30.012-13.465,30.012-30.015C103.539,37.465,90.074,24,73.527,24 M73.527,72.027c-9.933,0-18.015-8.082-18.015-18.015
		c0-9.93,8.082-18.012,18.015-18.012c9.934,0,18.012,8.082,18.012,18.016C91.539,63.949,83.461,72.027,73.527,72.027"/>
	<path fill="#fff" d="M73.527,108.027c7.055,0,13.93,1.969,19.875,5.692c2.809,1.758,6.512,0.906,8.27-1.907
		c1.758-2.808,0.906-6.511-1.902-8.269c-7.86-4.914-16.934-7.516-26.243-7.516C46.219,96.027,24,118.246,24,145.555
		c0,3.312,2.688,6,6,6h66.473c3.316,0,6-2.688,6-6c0-3.317-2.684-6-6-6H36.48C39.359,121.707,54.875,108.027,73.527,108.027"/>
	<path fill="#fff" d="M363.117,0H241.832c-7.105,0-12.883,5.781-12.883,12.883V77.93c0,3.312,2.684,6,6,6c3.313,0,6-2.688,6-6V12.883
		c0-0.485,0.395-0.883,0.883-0.883h121.285c0.484,0,0.883,0.398,0.883,0.883v149.789c0,0.484-0.398,0.883-0.883,0.883h-44.383
		c-2.273,0-4.352,1.281-5.367,3.316l-10.895,21.789l-10.895-21.789c-1.017-2.035-3.094-3.316-5.367-3.316h-6.684
		c-3.316,0-6,2.683-6,6c0,3.312,2.684,6,6,6h2.977l14.605,29.203c1.016,2.035,3.094,3.316,5.363,3.316
		c2.273,0,4.352-1.281,5.367-3.316l14.602-29.203h40.676c7.105,0,12.883-5.782,12.883-12.883V12.883C376,5.781,370.219,0,363.117,0"
		/>
	<path fill="#fff" d="M302.473,24c-16.547,0-30.012,13.465-30.012,30.016c0,16.55,13.465,30.015,30.012,30.015
		c16.551,0,30.016-13.465,30.016-30.015C332.488,37.465,319.023,24,302.473,24 M302.473,72.027c-9.934,0-18.012-8.082-18.012-18.015
		c0-9.93,8.078-18.012,18.012-18.012s18.016,8.082,18.016,18.012C320.488,63.949,312.406,72.027,302.473,72.027"/>
	<path fill="#fff" d="M273.527,145.555c0,3.312,2.684,6,6,6H346c3.313,0,6-2.688,6-6c0-27.309-22.219-49.528-49.527-49.528
		c-9.309,0-18.383,2.602-26.238,7.52c-2.809,1.754-3.664,5.457-1.906,8.265c1.758,2.813,5.461,3.665,8.27,1.907
		c5.949-3.723,12.82-5.688,19.875-5.688c18.652,0,34.168,13.676,37.051,31.524h-59.996
		C276.211,139.555,273.527,142.242,273.527,145.555"/>
	<path fill="#fff" d="M114.473,108.809v149.785c0,7.105,5.781,12.883,12.886,12.883h40.672l14.602,29.207c1.015,2.031,3.094,3.316,5.367,3.316
		c2.27,0,4.348-1.285,5.367-3.316l14.602-29.207h40.672c7.105,0,12.883-5.777,12.883-12.883V108.809
		c0-7.106-5.777-12.883-12.883-12.883H127.359C120.254,95.926,114.473,101.703,114.473,108.809 M249.527,108.809v149.785
		c0,0.488-0.398,0.883-0.887,0.883h-44.379c-2.273,0-4.352,1.285-5.367,3.32L188,284.582l-10.895-21.785
		c-1.015-2.035-3.093-3.32-5.367-3.32h-44.379c-0.488,0-0.886-0.395-0.886-0.883V108.809c0-0.489,0.398-0.883,0.886-0.883h121.282
		C249.129,107.926,249.527,108.32,249.527,108.809"/>
	<path fill="#fff" d="M188,179.953c16.551,0,30.016-13.465,30.016-30.015c0-16.551-13.465-30.016-30.016-30.016s-30.016,13.465-30.016,30.016
		C157.984,166.488,171.449,179.953,188,179.953 M188,131.926c9.934,0,18.016,8.078,18.016,18.012
		c0,9.933-8.082,18.015-18.016,18.015c-9.934,0-18.016-8.082-18.016-18.015C169.984,140.004,178.066,131.926,188,131.926"/>
	<path fill="#fff" d="M144.473,247.48h87.054c3.313,0,6-2.688,6-6c0-27.309-22.219-49.527-49.527-49.527c-27.309,0-49.527,22.219-49.527,49.527
		C138.473,244.793,141.16,247.48,144.473,247.48 M188,203.953c18.648,0,34.164,13.676,37.047,31.523h-74.094
		C153.832,217.629,169.348,203.953,188,203.953"/>
	<path fill="#fff" d="M305.199,352.398c3.531,0,6.402-2.871,6.402-6.398s-2.871-6.398-6.402-6.398c-3.527,0-6.398,2.871-6.398,6.398
		S301.672,352.398,305.199,352.398"/>
	<path fill="#fff" d="M272.398,352.398c3.531,0,6.402-2.871,6.402-6.398s-2.871-6.398-6.402-6.398c-3.527,0-6.398,2.871-6.398,6.398
		S268.871,352.398,272.398,352.398"/>
	<path fill="#fff" d="M338,352.398c3.527,0,6.398-2.871,6.398-6.398s-2.871-6.398-6.398-6.398s-6.398,2.871-6.398,6.398
		S334.473,352.398,338,352.398"/>
	<path fill="#fff" d="M370,316H6c-3.312,0-6,2.688-6,6v48c0,3.312,2.688,6,6,6h364c3.313,0,6-2.688,6-6v-48C376,318.688,373.313,316,370,316
		 M12,328h222v36H12V328z M364,364H246v-36h118V364z"/>
</g>
</svg>
