<?xml version="1.0" encoding="utf-8"?>
<!-- Generator: Adobe Illustrator 16.0.0, SVG Export Plug-In . SVG Version: 6.00 Build 0)  -->
<!DOCTYPE svg PUBLIC "-//W3C//DTD SVG 1.1//EN" "http://www.w3.org/Graphics/SVG/1.1/DTD/svg11.dtd">
<svg version="1.1" id="Layer_1" xmlns="http://www.w3.org/2000/svg" xmlns:xlink="http://www.w3.org/1999/xlink" x="0px" y="0px"
	 width="303.561px" height="256.573px" viewBox="0 0 303.561 256.573" enable-background="new 0 0 303.561 256.573"
	 xml:space="preserve">
<g>
	<path fill="#FFFFFF" d="M34.481,102.833h-1.5c-3.621,0-6.583-2.962-6.583-6.583V73.917c0-3.62,2.962-6.583,6.583-6.583h1.5
		c3.621,0,6.583,2.963,6.583,6.583V96.25C41.064,99.872,38.102,102.833,34.481,102.833"/>
	<path fill="#FFFFFF" d="M52.314,122.39h-1.5c-3.621,0-6.583-2.962-6.583-6.583v-59.64c0-3.621,2.962-6.584,6.583-6.584h1.5
		c3.621,0,6.583,2.963,6.583,6.584v59.64C58.897,119.428,55.935,122.39,52.314,122.39"/>
	<path fill="#FFFFFF" d="M70.147,122.39h-1.5c-3.621,0-6.583-2.962-6.583-6.583v-59.64c0-3.621,2.962-6.584,6.583-6.584h1.5
		c3.621,0,6.583,2.963,6.583,6.584v59.64C76.73,119.428,73.769,122.39,70.147,122.39"/>
	<path fill="#FFFFFF" d="M87.981,122.39h-1.5c-3.621,0-6.583-2.962-6.583-6.583v-59.64c0-3.621,2.962-6.584,6.583-6.584h1.5
		c3.621,0,6.583,2.963,6.583,6.584v59.64C94.564,119.428,91.602,122.39,87.981,122.39"/>
	<path fill="#FFFFFF" d="M189.27,14.173c10.456,0,21.037,2.15,31.452,6.388c33.369,13.582,40.628,42.871,41.986,59.121l0.002,0.033
		l0.003,0.033l0.045,0.527l0.004,0.06l0.002,0.025l0.002,0.025c0.127,1.612,0.201,3.286,0.22,5.001l0.001,0.118
		c0.003,0.26,0.004,0.521,0.004,0.81c0,0.262-0.001,0.522-0.003,0.748l-0.002,0.177c-0.019,1.69-0.093,3.365-0.22,4.976
		l-0.005,0.069l-0.002,0.025l-0.001,0.019l-0.044,0.522l-0.004,0.034l-0.002,0.035c-1.358,16.25-8.618,45.538-41.986,59.12
		c-10.415,4.239-20.996,6.388-31.452,6.388c-26.143,0-44.538-13.302-49.351-19.743c-10.433-13.964-21.046-22.211-26.681-26.238
		V60.154c5.635-4.025,16.247-12.272,26.681-26.237C144.731,27.475,163.127,14.173,189.27,14.173 M189.27,0
		c-30.062,0-52.843,14.911-60.705,25.434c-10.834,14.5-21.834,22-25.834,24.776c-4,2.777-3.666,2.724-3.666,5.89v60.4
		c0,3.167-0.334,3.113,3.666,5.89s15,10.277,25.834,24.777c7.861,10.522,30.647,25.433,60.705,25.433
		c11.364,0,23.763-2.129,36.795-7.433c36.029-14.665,48.657-45.82,50.768-71.068c0.019-0.218,0.036-0.436,0.055-0.656
		c0.003-0.038,0.006-0.075,0.009-0.113c0.15-1.903,0.24-3.887,0.262-5.936c0.001-0.056,0.001-0.112,0.002-0.168
		c0.003-0.307,0.005-0.616,0.005-0.926c0-0.31-0.002-0.619-0.005-0.926c-0.001-0.056-0.001-0.111-0.002-0.167
		c-0.021-2.05-0.111-4.034-0.262-5.937c-0.003-0.038-0.006-0.075-0.009-0.112c-0.019-0.22-0.036-0.439-0.055-0.656
		c-2.109-25.248-14.738-56.404-50.768-71.068C213.035,2.131,200.632,0,189.27,0"/>
	<path fill="#FFFFFF" d="M194.397,85.083c4.839-6.505-12.103,32.801-42.676,38.881c-2.769,0.551-3.824,0.369-5.991-1.574
		c-8-6.724-21.5-58.057,22-77.224c28.334-11.833,59.187,3.658,69,25C247.23,93,243.564,138.5,190.23,140
		c0,0,35.752-7.257,40.5-39.167c4.167-28-19.909-45.423-31.576-47.257c-11.667-1.833-45.131,1.358-51.797,34.663
		c-2.5,14.195,3.984,26.456,3.984,26.456S171.397,116,194.397,85.083"/>
	<polygon fill="#FFFFFF" points="140.731,80.667 118.231,77 141.898,73.667 	"/>
	<polyline fill="#FFFFFF" points="158.564,54.833 147.897,39.667 162.231,51.167 159.231,55.667 	"/>
	<path fill="#FFFFFF" d="M186.064,44.833c0.667,0,2.046-25.667,2.046-25.667l3.787,25.667H186.064z"/>
	<polygon fill="#FFFFFF" points="215.397,51 230.397,38 219.064,55.667 	"/>
	<polygon fill="#FFFFFF" points="234.897,74.667 259.564,77.167 234.897,80.667 	"/>
	<path fill="#FFFFFF" d="M200.397,65c-11.563,2.531-39.833,11.5-40.333,45.833c0,0,9.166-30.5,38.333-34.666
		c0,0,5.833,28.333-26.5,47c0,0,38.833-0.667,37.333-51.5C208.897,65,204.826,64.031,200.397,65"/>
	<path fill="#FFFFFF" d="M169.258,147.148c6.854,3.605,24.783,11.032,39.503-5.941c0,0-17.442,11.402-33.796,1.195
		c0,0,9.021-16.639,33.072-12.355c0,0-19.718-16.032-40.391,10.042C165.004,143.566,166.633,145.768,169.258,147.148"/>
	<polygon fill="#FFFFFF" points="22.733,194.127 22.733,201.522 6.754,201.522 6.754,216.313 20.241,216.313 20.241,223.743 
		6.754,223.743 6.754,244.098 0,244.098 0,194.127 	"/>
	<path fill="#FFFFFF" d="M26.148,244.098v-35.456h3.615c0.631,0,1.072,0.161,1.321,0.483c0.25,0.323,0.416,0.876,0.499,1.659
		l0.374,4.285c0.914-2.188,1.985-3.917,3.215-5.184c1.23-1.268,2.609-1.901,4.138-1.901c1.263,0,2.31,0.403,3.141,1.21l-0.798,6.393
		c-0.05,0.415-0.158,0.709-0.323,0.882c-0.167,0.173-0.391,0.259-0.674,0.259c-0.249,0-0.59-0.08-1.022-0.241
		c-0.432-0.161-1.006-0.243-1.719-0.243c-1.281,0-2.377,0.49-3.291,1.47s-1.687,2.413-2.319,4.303v22.082H26.148z"/>
	<path fill="#FFFFFF" d="M57.083,208.088c1.612,0,3.095,0.357,4.45,1.071c1.354,0.715,2.522,1.758,3.502,3.128
		c0.981,1.371,1.745,3.053,2.293,5.046c0.549,1.992,0.823,4.268,0.823,6.825c0,0.645-0.021,1.181-0.062,1.606
		c-0.042,0.427-0.116,0.761-0.225,1.002c-0.108,0.242-0.253,0.415-0.436,0.519c-0.183,0.104-0.415,0.155-0.698,0.155H50.926
		c0.183,3.641,0.889,6.313,2.119,8.018c1.229,1.705,2.858,2.558,4.886,2.558c0.997,0,1.857-0.161,2.58-0.484
		c0.722-0.322,1.354-0.68,1.894-1.071c0.54-0.391,1.014-0.748,1.421-1.071c0.407-0.322,0.802-0.483,1.184-0.483
		c0.25,0,0.466,0.069,0.648,0.207c0.183,0.139,0.341,0.335,0.474,0.588l1.795,3.109c-0.682,1.106-1.446,2.034-2.293,2.782
		c-0.848,0.749-1.733,1.349-2.655,1.798s-1.862,0.766-2.817,0.95c-0.956,0.184-1.882,0.276-2.779,0.276
		c-1.779,0-3.433-0.409-4.961-1.227c-1.529-0.818-2.859-2.027-3.988-3.629c-1.131-1.602-2.02-3.582-2.667-5.944
		c-0.649-2.361-0.973-5.097-0.973-8.207c0-2.419,0.282-4.694,0.848-6.825c0.564-2.131,1.375-3.985,2.43-5.564
		c1.055-1.578,2.343-2.828,3.864-3.749C53.456,208.55,55.172,208.088,57.083,208.088 M57.208,214.205
		c-1.795,0-3.199,0.703-4.213,2.108c-1.014,1.405-1.662,3.398-1.944,5.979h11.566c0-1.107-0.108-2.149-0.324-3.128
		c-0.216-0.979-0.548-1.837-0.997-2.574c-0.448-0.738-1.014-1.319-1.695-1.745C58.919,214.418,58.122,214.205,57.208,214.205"/>
	<path fill="#FFFFFF" d="M83.729,208.088c1.612,0,3.095,0.357,4.45,1.071c1.354,0.715,2.522,1.758,3.502,3.128
		c0.981,1.371,1.745,3.053,2.293,5.046c0.549,1.992,0.823,4.268,0.823,6.825c0,0.645-0.021,1.181-0.062,1.606
		c-0.042,0.427-0.116,0.761-0.225,1.002c-0.108,0.242-0.253,0.415-0.436,0.519c-0.183,0.104-0.415,0.155-0.698,0.155H77.572
		c0.183,3.641,0.889,6.313,2.119,8.018c1.229,1.705,2.858,2.558,4.886,2.558c0.997,0,1.857-0.161,2.58-0.484
		c0.722-0.322,1.354-0.68,1.894-1.071c0.54-0.391,1.014-0.748,1.421-1.071c0.407-0.322,0.802-0.483,1.184-0.483
		c0.25,0,0.466,0.069,0.648,0.207c0.183,0.139,0.341,0.335,0.474,0.588l1.795,3.109c-0.682,1.106-1.446,2.034-2.293,2.782
		c-0.848,0.749-1.733,1.349-2.655,1.798s-1.862,0.766-2.817,0.95c-0.956,0.184-1.882,0.276-2.779,0.276
		c-1.779,0-3.433-0.409-4.961-1.227c-1.529-0.818-2.859-2.027-3.988-3.629c-1.131-1.602-2.02-3.582-2.667-5.944
		c-0.649-2.361-0.973-5.097-0.973-8.207c0-2.419,0.282-4.694,0.848-6.825c0.564-2.131,1.375-3.985,2.43-5.564
		c1.055-1.578,2.343-2.828,3.864-3.749C80.103,208.55,81.818,208.088,83.729,208.088 M83.854,214.205
		c-1.795,0-3.199,0.703-4.213,2.108c-1.014,1.405-1.662,3.398-1.944,5.979h11.566c0-1.107-0.108-2.149-0.324-3.128
		c-0.216-0.979-0.548-1.837-0.997-2.574c-0.448-0.738-1.014-1.319-1.695-1.745C85.565,214.418,84.769,214.205,83.854,214.205"/>
	<polygon fill="#FFFFFF" points="132.512,194.127 132.512,201.522 116.533,201.522 116.533,215.38 129.122,215.38 129.122,222.533 
		116.533,222.533 116.533,236.668 132.512,236.668 132.512,244.098 109.778,244.098 109.778,194.127 	"/>
	<path fill="#FFFFFF" d="M137.97,244.098v-35.456h3.765c0.797,0,1.321,0.518,1.57,1.555l0.424,2.799
		c0.514-0.736,1.059-1.404,1.633-2.004c0.573-0.599,1.179-1.117,1.819-1.555s1.325-0.772,2.057-1.003
		c0.731-0.229,1.528-0.346,2.393-0.346c1.396,0,2.634,0.329,3.714,0.985s1.981,1.578,2.704,2.765
		c0.725,1.187,1.272,2.604,1.646,4.251s0.56,3.461,0.56,5.442v22.566H154.1v-22.566c0-2.165-0.362-3.841-1.085-5.028
		c-0.724-1.187-1.808-1.779-3.253-1.779c-1.063,0-2.061,0.334-2.991,1.002c-0.931,0.669-1.812,1.578-2.643,2.73v25.642H137.97z"/>
	<path fill="#FFFFFF" d="M175.162,208.02c1.098,0,2.128,0.155,3.092,0.465c0.964,0.313,1.845,0.768,2.642,1.366h7.354v3.18
		c0,0.53-0.101,0.944-0.3,1.244c-0.198,0.3-0.54,0.507-1.021,0.622l-2.293,0.587c0.166,0.6,0.295,1.233,0.385,1.901
		c0.092,0.668,0.138,1.37,0.138,2.107c0,1.751-0.254,3.335-0.761,4.752c-0.506,1.417-1.205,2.621-2.093,3.611
		c-0.889,0.991-1.945,1.757-3.166,2.298c-1.221,0.542-2.547,0.813-3.977,0.813c-0.964,0-1.902-0.127-2.815-0.38
		c-0.798,0.673-1.198,1.428-1.198,2.262c0,0.72,0.238,1.248,0.711,1.585c0.475,0.336,1.098,0.573,1.869,0.713
		c0.774,0.14,1.65,0.209,2.63,0.209c0.981,0,1.987,0.058,3.018,0.174c1.029,0.115,2.034,0.317,3.016,0.606
		c0.98,0.289,1.857,0.745,2.629,1.369c0.774,0.624,1.397,1.475,1.871,2.549c0.473,1.074,0.709,2.456,0.709,4.143
		c0,1.572-0.278,3.098-0.834,4.577c-0.557,1.479-1.363,2.795-2.418,3.952c-1.056,1.155-2.348,2.086-3.876,2.791
		c-1.53,0.705-3.275,1.058-5.235,1.058c-1.943,0-3.632-0.26-5.06-0.777c-1.43-0.52-2.614-1.21-3.553-2.074
		c-0.939-0.863-1.642-1.86-2.106-2.989s-0.698-2.304-0.698-3.524c0-1.659,0.365-3.053,1.098-4.182
		c0.73-1.129,1.744-2.027,3.041-2.695c-0.633-0.484-1.14-1.129-1.521-1.936c-0.382-0.806-0.573-1.854-0.573-3.145
		c0-0.53,0.067-1.077,0.199-1.642c0.133-0.564,0.337-1.123,0.612-1.676c0.272-0.554,0.618-1.077,1.034-1.572
		c0.415-0.495,0.904-0.938,1.471-1.331c-1.296-0.968-2.315-2.258-3.054-3.87c-0.739-1.612-1.11-3.502-1.11-5.668
		c0-1.75,0.253-3.335,0.761-4.752c0.506-1.416,1.213-2.626,2.118-3.628c0.907-1.003,1.979-1.768,3.216-2.298
		C172.35,208.284,173.699,208.02,175.162,208.02 M181.919,245.586c0-0.705-0.151-1.281-0.449-1.728
		c-0.299-0.447-0.706-0.794-1.222-1.042s-1.117-0.429-1.808-0.547c-0.689-0.118-1.421-0.176-2.193-0.176h-2.394
		c-0.822,0-1.616-0.127-2.38-0.381c-0.698,0.53-1.259,1.158-1.683,1.884c-0.425,0.726-0.637,1.561-0.637,2.505
		c0,0.622,0.112,1.204,0.337,1.746c0.226,0.541,0.581,1.007,1.072,1.399c0.49,0.392,1.125,0.695,1.907,0.915
		c0.781,0.219,1.736,0.329,2.867,0.329c1.146,0,2.135-0.124,2.966-0.371s1.516-0.588,2.056-1.022
		c0.54-0.436,0.936-0.953,1.186-1.553C181.794,246.943,181.919,246.292,181.919,245.586 M175.162,225.506
		c0.766,0,1.43-0.144,1.994-0.433c0.565-0.287,1.034-0.685,1.408-1.192c0.374-0.506,0.657-1.117,0.848-1.831
		c0.191-0.714,0.287-1.497,0.287-2.35c0-1.751-0.379-3.14-1.135-4.165c-0.756-1.024-1.89-1.537-3.402-1.537
		s-2.646,0.513-3.401,1.537c-0.757,1.025-1.135,2.414-1.135,4.165c0,0.829,0.096,1.602,0.286,2.315s0.475,1.33,0.849,1.849
		s0.847,0.922,1.421,1.209C173.755,225.362,174.415,225.506,175.162,225.506"/>
	<path fill="#FFFFFF" d="M199.59,198.309c0,0.737-0.107,1.429-0.324,2.073c-0.216,0.646-0.503,1.21-0.858,1.693
		c-0.358,0.483-0.778,0.87-1.259,1.158c-0.482,0.288-0.997,0.432-1.547,0.432c-0.531,0-1.033-0.144-1.508-0.432
		c-0.473-0.288-0.885-0.675-1.233-1.158c-0.35-0.483-0.627-1.048-0.835-1.693c-0.208-0.645-0.313-1.336-0.313-2.073
		c0-0.761,0.104-1.475,0.313-2.143s0.485-1.244,0.835-1.729c0.349-0.483,0.761-0.869,1.233-1.157
		c0.475-0.288,0.977-0.432,1.508-0.432c0.55,0,1.064,0.144,1.547,0.432c0.48,0.288,0.9,0.674,1.259,1.157
		c0.355,0.484,0.643,1.061,0.858,1.729C199.482,196.834,199.59,197.548,199.59,198.309 M198.668,244.098h-6.157v-35.456h6.157
		V244.098z"/>
	<path fill="#FFFFFF" d="M205.623,244.098v-35.456h3.765c0.797,0,1.321,0.518,1.57,1.555l0.424,2.799
		c0.514-0.736,1.059-1.404,1.633-2.004c0.573-0.599,1.179-1.117,1.819-1.555c0.64-0.438,1.324-0.772,2.057-1.003
		c0.731-0.229,1.528-0.346,2.393-0.346c1.396,0,2.634,0.329,3.715,0.985c1.079,0.656,1.98,1.578,2.703,2.765
		c0.725,1.187,1.272,2.604,1.646,4.251s0.56,3.461,0.56,5.442v22.566h-6.155v-22.566c0-2.165-0.362-3.841-1.085-5.028
		c-0.724-1.187-1.808-1.779-3.253-1.779c-1.063,0-2.062,0.334-2.991,1.002c-0.932,0.669-1.813,1.578-2.644,2.73v25.642H205.623z"/>
	<path fill="#FFFFFF" d="M244.535,208.088c1.611,0,3.095,0.357,4.449,1.071c1.354,0.715,2.522,1.758,3.502,3.128
		c0.981,1.371,1.745,3.053,2.293,5.046c0.55,1.992,0.823,4.268,0.823,6.825c0,0.645-0.021,1.181-0.062,1.606
		c-0.042,0.427-0.116,0.761-0.226,1.002c-0.107,0.242-0.253,0.415-0.436,0.519c-0.184,0.104-0.415,0.155-0.698,0.155h-15.804
		c0.183,3.641,0.889,6.313,2.119,8.018c1.229,1.705,2.857,2.558,4.886,2.558c0.997,0,1.856-0.161,2.58-0.484
		c0.722-0.322,1.354-0.68,1.894-1.071c0.54-0.391,1.015-0.748,1.421-1.071c0.407-0.322,0.803-0.483,1.185-0.483
		c0.25,0,0.466,0.069,0.647,0.207c0.184,0.139,0.342,0.335,0.475,0.588l1.795,3.109c-0.683,1.106-1.446,2.034-2.293,2.782
		c-0.849,0.749-1.733,1.349-2.655,1.798s-1.862,0.766-2.817,0.95c-0.956,0.184-1.882,0.276-2.778,0.276
		c-1.779,0-3.434-0.409-4.961-1.227c-1.529-0.818-2.859-2.027-3.988-3.629c-1.131-1.602-2.021-3.582-2.667-5.944
		c-0.649-2.361-0.973-5.097-0.973-8.207c0-2.419,0.281-4.694,0.848-6.825c0.563-2.131,1.375-3.985,2.43-5.564
		c1.056-1.578,2.343-2.828,3.864-3.749C240.907,208.55,242.624,208.088,244.535,208.088 M244.66,214.205
		c-1.796,0-3.199,0.703-4.214,2.108c-1.014,1.405-1.661,3.398-1.943,5.979h11.565c0-1.107-0.107-2.149-0.323-3.128
		c-0.217-0.979-0.549-1.837-0.997-2.574c-0.448-0.738-1.015-1.319-1.695-1.745C246.371,214.418,245.573,214.205,244.66,214.205"/>
	<path fill="#FFFFFF" d="M271.182,208.088c1.611,0,3.095,0.357,4.449,1.071c1.354,0.715,2.522,1.758,3.502,3.128
		c0.981,1.371,1.745,3.053,2.293,5.046c0.55,1.992,0.823,4.268,0.823,6.825c0,0.645-0.021,1.181-0.062,1.606
		c-0.042,0.427-0.116,0.761-0.226,1.002c-0.107,0.242-0.253,0.415-0.436,0.519c-0.184,0.104-0.415,0.155-0.698,0.155h-15.804
		c0.183,3.641,0.889,6.313,2.119,8.018c1.229,1.705,2.857,2.558,4.886,2.558c0.997,0,1.856-0.161,2.58-0.484
		c0.722-0.322,1.354-0.68,1.894-1.071c0.54-0.391,1.015-0.748,1.421-1.071c0.407-0.322,0.803-0.483,1.185-0.483
		c0.25,0,0.466,0.069,0.647,0.207c0.184,0.139,0.342,0.335,0.475,0.588l1.795,3.109c-0.683,1.106-1.446,2.034-2.293,2.782
		c-0.849,0.749-1.733,1.349-2.655,1.798s-1.862,0.766-2.817,0.95c-0.955,0.184-1.882,0.276-2.778,0.276
		c-1.779,0-3.434-0.409-4.961-1.227c-1.529-0.818-2.859-2.027-3.988-3.629c-1.131-1.602-2.021-3.582-2.667-5.944
		c-0.649-2.361-0.973-5.097-0.973-8.207c0-2.419,0.281-4.694,0.848-6.825c0.564-2.131,1.375-3.985,2.43-5.564
		c1.056-1.578,2.344-2.828,3.864-3.749S269.271,208.088,271.182,208.088 M271.307,214.205c-1.796,0-3.199,0.703-4.214,2.108
		c-1.014,1.405-1.661,3.398-1.943,5.979h11.565c0-1.107-0.107-2.149-0.323-3.128c-0.217-0.979-0.549-1.837-0.997-2.574
		c-0.448-0.738-1.015-1.319-1.695-1.745C273.018,214.418,272.22,214.205,271.307,214.205"/>
	<path fill="#FFFFFF" d="M287.258,244.098v-35.456h3.615c0.631,0,1.072,0.161,1.321,0.483c0.25,0.323,0.416,0.876,0.499,1.659
		l0.374,4.285c0.914-2.188,1.985-3.917,3.215-5.184c1.23-1.268,2.609-1.901,4.138-1.901c1.264,0,2.311,0.403,3.142,1.21
		l-0.798,6.393c-0.051,0.415-0.158,0.709-0.323,0.882c-0.167,0.173-0.392,0.259-0.674,0.259c-0.249,0-0.59-0.08-1.022-0.241
		c-0.432-0.161-1.006-0.243-1.719-0.243c-1.281,0-2.377,0.49-3.291,1.47s-1.688,2.413-2.319,4.303v22.082H287.258z"/>
</g>
</svg>
